<svg width="48" height="48" viewBox="0 0 48 48" fill="none" xmlns="http://www.w3.org/2000/svg">
<g opacity="0.38">
<rect opacity="0.38" x="7" y="17" width="34" height="14" rx="7" fill="#81D4FA"/>
<g filter="url(#filter0_ddd_185_6069)">
<path fill-rule="evenodd" clip-rule="evenodd" d="M31 34C36.5228 34 41 29.5228 41 24C41 18.4772 36.5228 14 31 14C25.4772 14 21 18.4772 21 24C21 29.5228 25.4772 34 31 34Z" fill="#121212"/>
<path fill-rule="evenodd" clip-rule="evenodd" d="M31 34C36.5228 34 41 29.5228 41 24C41 18.4772 36.5228 14 31 14C25.4772 14 21 18.4772 21 24C21 29.5228 25.4772 34 31 34Z" fill="white" fill-opacity="0.05"/>
</g>
<path fill-rule="evenodd" clip-rule="evenodd" d="M31 34C36.5228 34 41 29.5228 41 24C41 18.4772 36.5228 14 31 14C25.4772 14 21 18.4772 21 24C21 29.5228 25.4772 34 31 34Z" fill="#81D4FA"/>
</g>
<defs>
<filter id="filter0_ddd_185_6069" x="18" y="12" width="26" height="26" filterUnits="userSpaceOnUse" color-interpolation-filters="sRGB">
<feFlood flood-opacity="0" result="BackgroundImageFix"/>
<feColorMatrix in="SourceAlpha" type="matrix" values="0 0 0 0 0 0 0 0 0 0 0 0 0 0 0 0 0 0 127 0" result="hardAlpha"/>
<feOffset dy="1"/>
<feGaussianBlur stdDeviation="1.5"/>
<feColorMatrix type="matrix" values="0 0 0 0 0 0 0 0 0 0 0 0 0 0 0 0 0 0 0.2 0"/>
<feBlend mode="normal" in2="BackgroundImageFix" result="effect1_dropShadow_185_6069"/>
<feColorMatrix in="SourceAlpha" type="matrix" values="0 0 0 0 0 0 0 0 0 0 0 0 0 0 0 0 0 0 127 0" result="hardAlpha"/>
<feOffset dy="2"/>
<feGaussianBlur stdDeviation="0.5"/>
<feColorMatrix type="matrix" values="0 0 0 0 0 0 0 0 0 0 0 0 0 0 0 0 0 0 0.12 0"/>
<feBlend mode="normal" in2="effect1_dropShadow_185_6069" result="effect2_dropShadow_185_6069"/>
<feColorMatrix in="SourceAlpha" type="matrix" values="0 0 0 0 0 0 0 0 0 0 0 0 0 0 0 0 0 0 127 0" result="hardAlpha"/>
<feOffset dy="1"/>
<feGaussianBlur stdDeviation="0.5"/>
<feColorMatrix type="matrix" values="0 0 0 0 0 0 0 0 0 0 0 0 0 0 0 0 0 0 0.14 0"/>
<feBlend mode="normal" in2="effect2_dropShadow_185_6069" result="effect3_dropShadow_185_6069"/>
<feBlend mode="normal" in="SourceGraphic" in2="effect3_dropShadow_185_6069" result="shape"/>
</filter>
</defs>
</svg>
