<svg width="109" height="109" viewBox="0 0 109 109" fill="none" xmlns="http://www.w3.org/2000/svg">
<path d="M74.7734 24.7221L70.4135 27.2509V21.5457L65.5055 18.8176L65.219 18.9796L59.4889 22.2931V15.4792L58.9533 15.1803L54.7304 12.8384L54.2944 13.0875L34.2266 24.6723L29.0321 27.6744V51.9028V57.8447L34.2266 60.7222L49.1996 69.0309L54.4315 71.9333V72.008L54.4937 71.9707L59.6259 69.0059L59.738 68.9437L59.6259 68.8814V63.0142V46.7955L54.4315 43.918L54.2322 43.8059L48.9505 40.8661L43.7062 43.8931L49.0003 46.8329L54.4315 49.8474V66.0039L34.2266 54.7803V30.664L54.2944 19.0792V37.8017L59.4889 40.6793V28.2848L65.219 24.9713V30.2405V36.2322V59.7879V65.7796L70.4135 62.7776V56.7983V33.2426L74.7734 30.7138V60.2613L79.9678 57.2592V26.8522L75.446 24.336L74.7734 24.7221Z" fill="white" fill-opacity="0.38"/>
<path d="M21.8321 90.2823H25.8183C25.8307 90.4318 25.8307 90.5938 25.8307 90.7432C25.8307 91.9515 25.3947 92.9232 24.5352 93.6706C23.7505 94.3432 22.7913 94.6796 21.6826 94.6796C20.2999 94.6796 19.1788 94.1938 18.3442 93.2221C17.5096 92.2505 17.0861 90.955 17.0861 89.3356C17.0861 87.7162 17.5096 86.4207 18.3442 85.4242C19.1788 84.4277 20.2999 83.9294 21.6826 83.9294C22.6294 83.9294 23.439 84.1412 24.1117 84.5771C24.8467 85.038 25.32 85.7107 25.5442 86.5827H27.1387C27.0764 85.6484 26.6903 84.7889 25.9678 84.0166C24.9961 82.9453 23.6508 82.4221 21.9069 82.4221C19.7767 82.4221 18.1325 83.1072 16.974 84.465C15.9027 85.7107 15.3795 87.3675 15.3795 89.4228C15.3795 91.3785 15.9152 92.9605 16.974 94.1938C18.0702 95.4768 19.5276 96.1121 21.3214 96.1121C22.2183 96.1121 22.9781 95.9751 23.6134 95.7135C24.2487 95.4519 24.9837 94.9287 25.8432 94.1813L26.2418 95.8007H27.3131V88.7751H21.8197V90.2823H21.8321Z" fill="white" fill-opacity="0.38"/>
<path d="M35.7091 89.136C36.7679 88.4509 37.2911 87.5664 37.2911 86.4578C37.2911 85.3989 36.9174 84.5519 36.1825 83.9166C35.4351 83.2813 34.4884 82.9699 33.3299 82.9948C30.8012 83.0322 29.5057 84.4024 29.4185 87.1304H30.9133C30.9631 85.3491 31.723 84.4522 33.2053 84.4522C34.8247 84.4522 35.6344 85.0875 35.6344 86.3706C35.6344 87.2924 35.3479 87.9028 34.7873 88.2017C34.3763 88.4135 33.6288 88.5256 32.5451 88.5256V89.8958C32.8192 89.8958 33.0683 89.8958 33.305 89.8958C35.1361 89.8958 36.0579 90.6557 36.0579 92.163C36.0579 93.8696 35.0365 94.7291 32.9935 94.7291C32.296 94.7291 31.7479 94.4799 31.3243 93.9692C30.9008 93.4709 30.689 92.8232 30.6766 92.0259H29.1693C29.1818 93.4086 29.6302 94.4799 30.5022 95.2024C31.2496 95.8253 32.1839 96.1367 33.305 96.1367C34.6005 96.1367 35.6593 95.763 36.469 95.028C37.2911 94.2931 37.7022 93.3464 37.7022 92.1879C37.7022 91.428 37.5527 90.8176 37.2538 90.3567C36.9174 89.8834 36.4192 89.4723 35.7091 89.136Z" fill="white" fill-opacity="0.38"/>
<path d="M52.2266 88.8994L48.1283 87.8281C46.9822 87.5291 46.4092 86.9437 46.4092 86.0842C46.4092 85.4364 46.6957 84.9008 47.2563 84.4648C47.8293 84.0288 48.5269 83.817 49.349 83.817C50.3082 83.817 51.0681 84.0163 51.6286 84.4274C52.2639 84.8883 52.6002 85.561 52.6501 86.4579H54.2445C54.1823 83.7797 52.5006 82.4343 49.1995 82.4343C47.8791 82.4343 46.8203 82.7831 46.0106 83.4932C45.2009 84.2032 44.8023 85.125 44.8023 86.2835C44.8023 87.8904 45.6867 88.9243 47.4431 89.3852L50.9933 90.3195C52.2764 90.6558 52.9117 91.2911 52.9117 92.2253C52.9117 92.9478 52.6252 93.5333 52.0646 93.9817C51.4916 94.4302 50.7567 94.6669 49.8349 94.6669C48.5394 94.6669 47.5926 94.4177 46.9698 93.9319C46.347 93.4461 45.9982 92.6613 45.9234 91.5776H44.3788C44.4037 93.0226 44.8397 94.1437 45.7116 94.9409C46.5712 95.7257 47.8293 96.1243 49.486 96.1243C51.0556 96.1243 52.3138 95.7631 53.2605 95.0406C54.2072 94.3181 54.6805 93.3714 54.6805 92.2004C54.6805 91.4157 54.4438 90.7056 53.9829 90.0828C53.5096 89.4724 52.9366 89.0862 52.2266 88.8994Z" fill="white" fill-opacity="0.38"/>
<path d="M58.5795 83.7422H57.0722V86.2958H55.7643V87.6785H57.0722V94.7913C57.0722 95.1401 57.2217 95.4391 57.5082 95.7131C57.8321 96.0121 58.2556 96.1616 58.7788 96.1616C59.2023 96.1616 59.6259 96.1242 60.0743 96.037V94.6792C59.7006 94.7415 59.4266 94.7664 59.2522 94.7664C58.8037 94.7664 58.592 94.617 58.592 94.318V87.6785H60.0868V86.2958H58.592V83.7422H58.5795Z" fill="white" fill-opacity="0.38"/>
<path d="M67.6479 91.9141C67.6479 92.6989 67.3864 93.3716 66.8632 93.9197C66.34 94.4678 65.6922 94.7418 64.9448 94.7418C64.4465 94.7418 64.023 94.5924 63.6867 94.2934C63.3504 93.9944 63.1884 93.6332 63.1884 93.1972V86.2837H61.6812V93.5584C61.6812 94.0692 61.8182 94.5425 62.0922 94.9536C62.5656 95.7135 63.4127 96.0996 64.6085 96.0996C65.4057 96.0996 66.041 95.9875 66.4895 95.7633C66.913 95.564 67.2992 95.1903 67.6604 94.6671V95.7135H69.1677V86.2837H67.6604V91.9141H67.6479Z" fill="white" fill-opacity="0.38"/>
<path d="M77.8627 87.4045C77.0904 86.4827 76.1312 86.0218 74.9603 86.0218C73.7644 86.0218 72.7928 86.4827 72.0579 87.4045C71.3229 88.3263 70.9492 89.5346 70.9492 91.0294C70.9492 92.6239 71.3229 93.8695 72.0579 94.7664C72.8053 95.6633 73.8267 96.1118 75.1471 96.1118C75.7451 96.1118 76.2309 96.0246 76.6046 95.8377C76.9783 95.6509 77.4641 95.2647 78.062 94.6668V95.7256H79.37V82.6335H77.8627V87.4045V87.4045ZM77.1651 93.7824C76.7042 94.4052 76.069 94.7166 75.2717 94.7166C74.4496 94.7166 73.8018 94.3803 73.3409 93.7076C72.88 93.0349 72.6433 92.1505 72.6433 91.0294C72.6433 90.008 72.8551 89.1858 73.2662 88.5381C73.6897 87.8903 74.2503 87.5664 74.9852 87.5664C76.9035 87.5664 77.8627 88.7872 77.8627 91.2163C77.8627 92.3 77.6385 93.1595 77.1651 93.7824Z" fill="white" fill-opacity="0.38"/>
<path d="M83.1691 86.2959H81.6619V95.7257H83.1691V86.2959Z" fill="white" fill-opacity="0.38"/>
<path d="M83.1691 82.6335H81.6619V84.5021H83.1691V82.6335Z" fill="white" fill-opacity="0.38"/>
<path d="M92.5117 87.3297C91.7768 86.4577 90.7304 86.0217 89.3602 86.0217C87.9899 86.0217 86.9436 86.4577 86.2086 87.3297C85.4737 88.2017 85.1 89.41 85.1 90.9422C85.1 92.5864 85.4488 93.8446 86.1588 94.729C86.8937 95.6508 87.9526 96.1117 89.3602 96.1117C90.8425 96.1117 91.9512 95.601 92.6861 94.5671C93.309 93.6826 93.6204 92.4743 93.6204 90.9422C93.6079 89.41 93.2467 88.2141 92.5117 87.3297ZM91.3284 93.6204C90.8425 94.293 90.1823 94.6294 89.3477 94.6294C88.5131 94.6294 87.8654 94.293 87.3671 93.6204C86.8813 92.9477 86.6322 92.0633 86.6322 90.9422C86.6322 89.8709 86.9062 89.0238 87.4418 88.3885C87.9276 87.8155 88.5629 87.529 89.3477 87.529C90.12 87.529 90.7554 87.8155 91.2536 88.3885C91.7893 89.0238 92.0633 89.8709 92.0633 90.9422C92.0633 92.0508 91.8266 92.9477 91.3284 93.6204Z" fill="white" fill-opacity="0.38"/>
</svg>
