<svg width="109" height="109" viewBox="0 0 109 109" fill="none" xmlns="http://www.w3.org/2000/svg">
<g clip-path="url(#clip0_138_6108)">
<path d="M63.436 71.2633C76.1874 71.2633 86.5284 60.8779 86.5284 48.0717V26.3351C86.5284 25.5198 85.879 24.8676 85.0672 24.8676H71.6289C71.8912 24.0398 71.9911 23.1367 71.9161 22.2085C71.6164 18.8847 68.9062 16.2256 65.5966 16.0124C61.6376 15.749 58.3404 18.9098 58.3404 22.8357C58.3404 23.7137 58.5153 24.5666 58.815 25.3442C53.7194 26.3853 49.2233 29.1196 45.9512 32.9326C40.8931 26.5985 36.0348 25.5951 32.7252 25.9337C28.5413 26.3727 24.7571 29.2952 23.0835 33.3716C22.2093 35.5039 21.9595 38.7399 22.4216 42.0261C22.8212 44.773 23.8828 48.8117 26.7553 52.4241C29.5154 55.8984 34.5236 59.5985 43.266 59.5985C43.3035 59.5985 43.3409 59.5985 43.3784 59.5985C47.3624 66.5597 54.8559 71.2633 63.436 71.2633ZM65.9838 67.4127L53.0825 58.2313C55.2931 57.6293 57.4787 56.8266 59.6143 55.8231L70.5049 66.2085C69.0811 66.7855 67.5574 67.1994 65.9838 67.4127ZM54.2689 54.017L54.731 48.0843L61.4377 37.9246L63.2986 49.5141C60.5885 51.3077 57.5661 52.8881 54.2689 54.017ZM71.8037 65.619L60.8757 55.2085C60.9631 55.1584 61.0506 55.1207 61.1505 55.0706L77.8735 60.9657C76.1749 62.8847 74.1142 64.4776 71.8037 65.619ZM78.7602 59.8744L62.6991 54.2177C63.8981 53.5278 65.0846 52.7878 66.2585 51.9725C66.9579 51.4833 67.6448 50.9816 68.3317 50.4548L81.0832 56.0364C80.4462 57.4035 79.6719 58.6829 78.7602 59.8744ZM81.5827 54.8197L74.0393 51.521L82.6193 50.9691C82.407 52.2861 82.0573 53.578 81.5827 54.8197ZM82.8691 47.8836C82.8691 48.4731 82.8441 49.0626 82.7942 49.6396L71.4291 50.3796L69.4932 49.5392C70.8296 48.4355 72.1534 47.2564 73.4273 45.9771L82.8691 42.578V47.8836ZM82.8691 41.1732L75.488 43.8323C76.3498 42.8916 77.2115 41.9132 78.0358 40.8973C79.9342 38.5768 81.5453 36.3066 82.8691 34.2747V41.1732V41.1732ZM82.0448 28.5552C80.671 30.9885 78.5853 34.2998 75.8377 37.7741L74.3515 28.5552H82.0448ZM70.4049 28.5552H73.0277L74.7262 39.1287C73.0277 41.1607 70.9794 43.3306 68.619 45.4127L70.4049 28.5552ZM65.4967 19.7C66.908 19.863 68.057 20.9794 68.2443 22.3967C68.3692 23.3374 68.082 24.2154 67.5324 24.8676H63.436C63.2112 24.8676 62.9739 24.8676 62.7491 24.8802C62.2745 24.3283 61.9997 23.6133 61.9997 22.8357C61.9997 20.9794 63.6108 19.4868 65.4967 19.7ZM63.6358 28.5552H69.0936L67.1827 46.6418C66.321 47.3442 65.4343 48.0341 64.4976 48.6863L61.2879 28.6806C62.0497 28.6054 62.8365 28.5552 63.6358 28.5552ZM56.1298 30.0352C57.3538 29.5335 58.6526 29.1447 59.989 28.8938L61.138 36.0181L54.9434 45.4001L56.1298 30.0352ZM54.7685 30.6624L52.9201 54.456C52.1458 54.6817 51.359 54.895 50.5472 55.0706L47.7996 36.5324C49.623 34.0615 52.0209 32.0546 54.7685 30.6624ZM40.3435 48.0717C40.3435 50.806 40.8181 53.4149 41.6799 55.8482C36.4844 55.5096 32.3879 53.578 29.6278 50.1162C25.2691 44.6475 25.4315 37.31 26.4681 34.7764C27.4297 32.4434 29.8526 29.9349 33.1123 29.5962C36.6467 29.2199 40.2936 31.44 43.7031 36.0307C41.5675 39.5301 40.3435 43.6567 40.3435 48.0717ZM45.6015 55.8106C44.5024 53.2519 43.9279 50.4172 44.0153 47.4446C44.1278 44.058 45.1019 40.8973 46.7255 38.1629L49.2733 55.334C49.1609 55.3591 49.0485 55.3716 48.9361 55.3967C47.7871 55.5848 46.6755 55.7228 45.6015 55.8106ZM47.5623 59.31C48.2117 59.2348 48.8736 59.1344 49.548 59.0215C50.1725 58.9087 50.7845 58.7958 51.4089 58.6578L63.948 67.5882C63.8856 67.5882 63.8356 67.5882 63.7732 67.5882C57.0915 67.7011 51.1467 64.4024 47.5623 59.31Z" fill="white" fill-opacity="0.38"/>
<path d="M19.0995 89.7262V84.9098H21.6722V84.383H19.0995V80.9839H18.5V89.7262C18.5 90.6418 18.8122 91.4069 19.4242 91.9964C20.0487 92.5859 20.798 92.887 21.6722 92.887V92.3602C20.9479 92.3602 20.3484 92.1093 19.8363 91.6076C19.3493 91.1184 19.0995 90.4913 19.0995 89.7262Z" fill="white" fill-opacity="0.38"/>
<path d="M27.3173 84.1824C26.0434 84.1824 24.9694 84.6214 24.0951 85.4868C23.2209 86.3523 22.7963 87.3808 22.7963 88.5598C22.7963 89.7388 23.2334 90.7799 24.1076 91.6704C24.9819 92.5609 26.006 92.9999 27.18 92.9999H27.3423C28.5912 92.9999 29.6653 92.5108 30.5395 91.545V90.5917C30.1524 91.1687 29.6653 91.6202 29.0783 91.9589C28.4913 92.2975 27.8169 92.4731 27.08 92.4731C26.3307 92.4731 25.5564 92.147 24.7571 91.5073L30.602 85.7126C29.6903 84.6841 28.5912 84.1824 27.3173 84.1824ZM24.3824 91.106C23.7205 90.3534 23.3957 89.488 23.3957 88.4971C23.3957 87.5062 23.7829 86.6157 24.5447 85.8506C25.3066 85.0854 26.1808 84.6966 27.1675 84.6966C28.1541 84.6966 29.0284 85.0353 29.8027 85.7L24.3824 91.106Z" fill="white" fill-opacity="0.38"/>
<path d="M40.1312 86.4776C39.844 85.7752 39.3444 85.2234 38.62 84.7969C37.8957 84.3705 37.1338 84.1572 36.347 84.1572C35.1356 84.1572 34.0865 84.5837 33.2247 85.4617C32.3505 86.3271 31.9258 87.3682 31.9258 88.5723C31.9258 89.7764 32.363 90.8174 33.2247 91.6829C34.0865 92.5483 35.1356 92.9748 36.347 92.9748C37.1463 92.9748 37.8832 92.7741 38.5826 92.3602C39.282 91.9463 39.794 91.3944 40.1437 90.6795V92.7741H40.7432V84.3705H40.1437V86.4776H40.1312ZM39.0572 91.3066C38.3078 92.0717 37.4211 92.4605 36.372 92.4605C35.3229 92.4605 34.4237 92.0717 33.6618 91.3066C32.9 90.5415 32.5128 89.6384 32.5128 88.5848C32.5128 87.5312 32.9 86.6281 33.6618 85.8505C34.4237 85.0728 35.3229 84.684 36.372 84.684C37.4086 84.684 38.3078 85.0728 39.0572 85.838C39.8065 86.6156 40.1812 87.5187 40.1812 88.5723C40.1812 89.6259 39.794 90.5415 39.0572 91.3066Z" fill="white" fill-opacity="0.38"/>
<path d="M53.2823 84.1572C51.7586 84.1572 50.6846 84.7718 50.0601 85.9885V78.7764H49.4731V92.7615H50.0726V87.8699C50.0726 87.0044 50.3973 86.2644 51.0343 85.6247C51.6837 84.985 52.433 84.6715 53.2823 84.6715C54.1316 84.6715 54.8684 84.985 55.4804 85.6122C56.0924 86.2393 56.3921 86.9919 56.3921 87.8573V92.749H56.9916V87.8573C56.9916 86.8288 56.6294 85.9508 55.9175 85.2233C55.1931 84.5209 54.3189 84.1572 53.2823 84.1572Z" fill="white" fill-opacity="0.38"/>
<path d="M62.9989 84.1572C61.7749 84.1572 60.7383 84.5837 59.8641 85.4617C58.9898 86.3271 58.5652 87.3556 58.5652 88.5347C58.5652 89.7137 58.9898 90.7547 59.8516 91.6453C60.7009 92.5358 61.725 92.9748 62.9239 92.9748H63.0863C64.2852 92.9748 65.3094 92.5358 66.1586 91.6453C66.9954 90.7673 67.42 89.7262 67.42 88.5347C67.42 87.3431 66.9829 86.3146 66.1212 85.4491C65.2594 84.5962 64.2228 84.1572 62.9989 84.1572ZM65.709 91.3066C64.9597 92.0717 64.0729 92.4605 63.0238 92.4605C61.9748 92.4605 61.0755 92.0717 60.3137 91.3066C59.5519 90.5415 59.1647 89.6384 59.1647 88.5848C59.1647 87.5312 59.5519 86.6281 60.3137 85.8505C61.0755 85.0728 61.9748 84.684 63.0238 84.684C64.0604 84.684 64.9597 85.0728 65.709 85.838C66.4584 86.6156 66.833 87.5187 66.833 88.5723C66.833 89.6259 66.4459 90.5415 65.709 91.3066Z" fill="white" fill-opacity="0.38"/>
<path d="M77.9859 84.1572C77.224 84.1572 76.5871 84.3328 76.0625 84.6966C75.538 85.0603 75.1758 85.5369 74.9885 86.139C74.7637 85.5495 74.414 85.0728 73.9269 84.7091C73.4398 84.3454 72.9402 84.1572 72.4157 84.1572C71.8911 84.1572 71.3791 84.2952 70.892 84.5711C70.4049 84.8471 70.0303 85.1732 69.7805 85.5369V84.3579H69.181V92.7616H69.7805V87.1549C69.7805 86.4902 70.0303 85.9132 70.5298 85.4115C71.0294 84.9098 71.6039 84.6589 72.2783 84.6589C72.9527 84.6589 73.5147 84.9098 73.9893 85.399C74.4639 85.8881 74.7012 86.4776 74.7012 87.1424V92.749H75.3007V87.1424C75.3007 86.4776 75.563 85.9007 76.075 85.399C76.5871 84.8973 77.1741 84.6464 77.836 84.6464C78.4979 84.6464 79.0724 84.8847 79.5345 85.3613C80.0091 85.838 80.2464 86.44 80.2464 87.1675V92.7365H80.8459V87.1675C80.8459 86.2393 80.5586 85.4868 79.9966 84.9474C79.3971 84.4332 78.7352 84.1572 77.9859 84.1572Z" fill="white" fill-opacity="0.38"/>
<path d="M88.9763 91.9589C88.3893 92.2975 87.7149 92.4731 86.9781 92.4731C86.2287 92.4731 85.4544 92.147 84.6551 91.5073L90.5 85.7126C89.5883 84.6966 88.4892 84.1824 87.2029 84.1824C85.929 84.1824 84.8549 84.6214 83.9807 85.4868C83.1189 86.3523 82.6818 87.3808 82.6818 88.5598C82.6818 89.7388 83.1189 90.7799 83.9932 91.6704C84.8674 92.5609 85.8915 92.9999 87.0655 92.9999H87.2278C88.4768 92.9999 89.5508 92.5108 90.4251 91.545V90.5917C90.0629 91.1561 89.5758 91.6202 88.9763 91.9589ZM83.2813 88.4971C83.2813 87.5062 83.6684 86.6157 84.4303 85.8506C85.1921 85.0854 86.0664 84.6966 87.053 84.6966C88.0396 84.6966 88.9139 85.0353 89.6882 85.7L84.2804 91.0934C83.606 90.3659 83.2813 89.488 83.2813 88.4971Z" fill="white" fill-opacity="0.38"/>
</g>
<defs>
<clipPath id="clip0_138_6108">
<rect width="72" height="77" fill="white" transform="translate(18.5 16)"/>
</clipPath>
</defs>
</svg>
