<svg width="109" height="109" viewBox="0 0 109 109" fill="none" xmlns="http://www.w3.org/2000/svg">
<path d="M44.8212 71.3418C46.6897 72.438 48.471 73.2228 49.9534 73.7709C50.0157 73.7958 50.0779 73.8207 50.1278 73.8332C50.4641 73.9578 50.7755 74.0699 51.0745 74.1695C51.1741 74.2069 51.2613 74.2318 51.3485 74.2567C51.4108 74.2816 51.4731 74.2941 51.5354 74.319C51.5354 74.319 53.9894 75.166 56.5181 74.319C56.5804 74.2941 56.6427 74.2816 56.7049 74.2567C56.7548 74.2443 56.8046 74.2193 56.8544 74.2069C56.8669 74.1695 56.8669 74.1446 56.8793 74.1446L56.9665 74.1695C57.2655 74.0699 57.5894 73.9577 57.9382 73.8207C58.0005 73.8083 58.0627 73.7833 58.1126 73.7584C59.5825 73.2103 61.3638 72.4131 63.2447 71.3294C69.4233 67.7294 73.6212 62.5224 75.4025 56.2691C77.0593 50.4394 76.6981 43.9868 74.3437 37.0608C74.1693 39.44 73.3721 41.4082 72.2634 43.1023C72.2634 43.1272 72.2759 43.1646 72.2883 43.202C72.4627 44.0989 72.5873 44.9708 72.687 45.8428C72.7119 46.0172 72.7243 46.1916 72.7368 46.366C72.8115 47.238 72.8614 48.085 72.8614 48.9196C72.8614 49.2061 72.8614 49.4802 72.8489 49.7542C72.8364 50.0283 72.824 50.3023 72.8115 50.5764C72.7991 50.8504 72.7742 51.1245 72.7493 51.3861C72.6994 51.9217 72.6247 52.4574 72.5375 52.993C72.4254 53.6532 72.2884 54.301 72.114 54.9363C72.0766 55.0608 72.0517 55.1854 72.0143 55.3224C70.4697 60.7162 66.9693 65.0636 61.5755 68.2401C59.7195 69.3363 57.9382 70.0961 56.543 70.6069C55.397 71.0179 54.5125 71.2671 54.0516 71.3792C53.5907 71.2671 52.7063 71.0179 51.5603 70.6069C50.1651 70.0961 48.3838 69.3363 46.5278 68.2401C41.134 65.0761 37.6212 60.7287 36.089 55.3224C36.0516 55.1978 36.0142 55.0733 35.9893 54.9363C35.8274 54.301 35.6779 53.6532 35.5658 52.993C35.4786 52.4698 35.4039 51.9342 35.354 51.3861C35.3291 51.112 35.3042 50.8504 35.2918 50.5764C35.2668 50.3023 35.2544 50.0283 35.2544 49.7542C35.2544 49.4802 35.2419 49.2061 35.2419 48.9196C35.2419 48.085 35.2793 47.238 35.3665 46.366C35.379 46.1916 35.3914 46.0172 35.4163 45.8428C35.5035 44.9833 35.6405 44.0989 35.8149 43.202C35.8274 43.1771 35.8274 43.1397 35.8399 43.1023C34.7437 41.4082 33.9464 39.44 33.7596 37.0608C31.4053 43.9992 31.044 50.4394 32.7007 56.2691C34.4447 62.5349 38.6426 67.7418 44.8212 71.3418Z" fill="white" fill-opacity="0.38"/>
<path d="M55.9823 79.8372L55.6211 79.3638L53.8397 77.0842L51.8965 79.5756L51.8093 79.6752L51.5477 80.0116C51.4605 80.1237 51.3484 80.2233 51.2363 80.3105C51.3608 80.3977 51.4605 80.4974 51.5477 80.6095L51.8093 80.9458C51.8217 80.9583 51.8342 80.9708 51.8466 80.9957C51.8591 81.0206 51.8716 81.033 51.884 81.0579L53.8273 83.5493L55.6086 81.2697C55.6584 81.1701 56.3186 80.3977 56.4307 80.3105C56.3062 80.2233 56.2065 80.1237 56.1193 80.0116L55.9823 79.8372Z" fill="white" fill-opacity="0.38"/>
<path d="M59.159 59.8815C59.159 59.7818 59.1714 59.6946 59.1839 59.595C59.1963 59.4953 59.2088 59.4081 59.2213 59.3085C59.2337 59.2088 59.2462 59.1216 59.2586 59.0344C59.2835 58.8476 59.3209 58.6732 59.3583 58.4988C59.3957 58.3244 59.433 58.15 59.4828 57.9756C59.5078 57.8884 59.5202 57.8012 59.5451 57.7265C59.57 57.6393 59.595 57.5645 59.6199 57.4773C59.6448 57.3901 59.6697 57.3154 59.6946 57.2407C59.7195 57.1535 59.7444 57.0787 59.7818 57.004C59.8441 56.842 59.8939 56.6925 59.9562 56.5431C59.9936 56.4683 60.0185 56.3936 60.0559 56.3188C60.0808 56.2441 60.1181 56.1694 60.1555 56.0946C60.2178 55.9451 60.2925 55.7957 60.3673 55.6586C60.5168 55.3721 60.6662 55.0981 60.8282 54.824C60.9901 54.55 61.1645 54.3008 61.3389 54.0393C61.4261 53.9147 61.5133 53.8026 61.6005 53.6905C61.6129 53.6656 61.6254 53.6531 61.6379 53.6282C61.7001 53.5534 61.75 53.4787 61.8122 53.404C61.8621 53.3417 61.9119 53.2669 61.9742 53.2047C62.0489 53.1175 62.1237 53.0303 62.1984 52.9431C62.1112 51.7472 61.8372 50.4642 61.3763 49.1188C61.2891 49.206 61.2019 49.2932 61.1147 49.3804C61.0275 49.4676 60.9403 49.5673 60.8406 49.6545C60.6662 49.8289 60.5043 50.0033 60.3299 50.1901C60.1555 50.377 59.9936 50.5638 59.8316 50.7507C59.7444 50.8503 59.6572 50.95 59.5825 51.0496C59.4206 51.2489 59.2586 51.4482 59.0967 51.66C59.0219 51.7597 58.9347 51.8718 58.86 51.9714C58.8102 52.0462 58.7604 52.1085 58.7105 52.1832C58.561 52.395 58.4116 52.6067 58.2745 52.8309C58.2247 52.9057 58.1749 52.9804 58.1251 53.0676C58.0877 53.1175 58.0628 53.1673 58.0254 53.2296C57.9507 53.3417 57.8884 53.4662 57.8136 53.5908C57.7638 53.6656 57.7264 53.7528 57.6766 53.8275C57.6392 53.8898 57.6143 53.9396 57.577 54.0019C57.4399 54.2635 57.3154 54.5251 57.1908 54.7991C57.1285 54.9237 57.0787 55.0607 57.0164 55.1977C56.979 55.2974 56.9292 55.397 56.8918 55.4967C56.8669 55.5465 56.8545 55.6088 56.8295 55.6711C56.7797 55.7832 56.7424 55.9078 56.705 56.0323C56.6552 56.1694 56.6053 56.3188 56.568 56.4559C56.4309 56.9043 56.3064 57.3652 56.2067 57.8386C56.1693 57.9881 56.1444 58.1375 56.1195 58.287C56.0821 58.449 56.0572 58.6109 56.0323 58.7728C56.0074 58.9348 55.9825 59.0967 55.97 59.2711C55.9451 59.4455 55.9327 59.6074 55.9202 59.7818C55.9077 59.9438 55.8953 60.1057 55.8828 60.2676C55.8828 60.2926 55.8828 60.305 55.8828 60.3299C55.8704 60.5043 55.8579 60.6663 55.8579 60.8531C55.8579 61.04 55.8455 61.2268 55.8455 61.4137C55.8455 62.5348 55.9451 63.7431 56.1569 65.051L56.4932 67.1811L58.4365 66.2593C63.2697 63.9673 66.0974 60.5666 66.8572 56.1694C67.069 54.9237 67.1188 53.6157 66.9943 52.2704C66.9818 52.1707 66.9694 52.0711 66.9694 51.9714C66.9569 51.8842 66.9444 51.8095 66.9444 51.7223C66.9444 51.6725 66.932 51.6351 66.932 51.5853C66.9195 51.4732 66.9071 51.3735 66.8822 51.2739C66.8199 50.8877 66.7576 50.5015 66.6704 50.1154C66.6455 50.0157 66.633 49.9161 66.6081 49.8164C66.5832 49.7043 66.5583 49.6046 66.5334 49.505C66.5085 49.3929 66.4835 49.2932 66.4462 49.1936C66.4213 49.0815 66.3839 48.9818 66.359 48.8697C66.06 47.7735 65.6614 46.6524 65.1631 45.5064C65.0386 45.2074 64.9015 44.9209 64.7645 44.6219C64.7147 44.5223 64.6773 44.4226 64.6275 44.323C64.5777 44.2233 64.5278 44.1237 64.478 44.024C64.4282 43.9244 64.3783 43.8247 64.3285 43.7251C64.2289 43.5257 64.1292 43.3264 64.0171 43.1271C61.9493 39.2033 58.7977 35.0302 55.1479 31.3679L54.0143 30.2344L52.8808 31.3679C49.2309 35.0178 46.0794 39.2033 44.0115 43.1271C43.9368 43.2642 43.8745 43.3887 43.7998 43.5257C43.7375 43.6628 43.6627 43.7873 43.6005 43.9244C44.2482 44.6718 45.0704 45.4441 46.0171 46.3285C46.0794 46.179 46.1417 46.042 46.2164 45.905C46.3534 45.6185 46.4904 45.332 46.6399 45.0455C46.7022 44.9084 46.7769 44.7714 46.8517 44.6219C46.8517 44.6219 46.8517 44.6095 46.8641 44.6095C46.9264 44.4974 46.9763 44.3977 47.0385 44.2981C47.1008 44.186 47.1507 44.0863 47.2129 43.9867C47.2752 43.8745 47.3375 43.7749 47.3873 43.6628C47.4496 43.5631 47.5119 43.451 47.5742 43.3513C47.6614 43.2143 47.7361 43.0648 47.8233 42.9278C47.898 42.8033 47.9728 42.6912 48.0475 42.5666C48.0725 42.5417 48.0849 42.5043 48.1098 42.4669C48.1845 42.3424 48.2717 42.2178 48.3465 42.0808C48.5209 41.8067 48.7077 41.5202 48.8946 41.2462C49.0814 40.9721 49.2558 40.6981 49.4551 40.4365C49.4676 40.424 49.4676 40.4116 49.4801 40.4116C49.5673 40.2745 49.6669 40.15 49.7666 40.0129C49.8662 39.8759 49.9534 39.7389 50.0655 39.6019C50.1652 39.4648 50.2648 39.3278 50.3645 39.2032C50.5638 38.9417 50.7631 38.6676 50.9749 38.406C51.0745 38.2814 51.1742 38.1569 51.2738 38.0323C51.2863 38.0198 51.2988 38.0074 51.2988 37.9949C51.3984 37.8704 51.4981 37.7458 51.5977 37.6212C51.9091 37.2351 52.233 36.8489 52.5569 36.4877C52.6565 36.3756 52.7562 36.251 52.8559 36.1389C52.968 36.0019 53.0925 35.8773 53.2046 35.7527C53.3043 35.6282 53.4164 35.516 53.5285 35.3915C53.6406 35.2669 53.7527 35.1548 53.8648 35.0302C53.9271 34.968 53.9894 34.8932 54.0517 34.8309C54.1015 34.8808 54.1514 34.9306 54.2012 34.9804C54.2884 35.0676 54.3756 35.1673 54.4503 35.2545C54.6995 35.5285 54.961 35.815 55.2102 36.1015C55.2974 36.1887 55.3846 36.2884 55.4593 36.388C56.0821 37.1105 56.705 37.8579 57.2905 38.6178C57.3901 38.7423 57.4898 38.8669 57.5894 39.0039C57.6891 39.1285 57.7887 39.2655 57.8884 39.4026C58.3493 40.0254 58.7977 40.6607 59.2337 41.3084C59.3084 41.4081 59.3832 41.5202 59.4455 41.6323C59.5202 41.7444 59.5949 41.8441 59.6572 41.9562C60.006 42.5043 60.3424 43.0524 60.6538 43.6005C60.7783 43.8122 60.8904 44.0365 61.015 44.2482C61.4385 45.0206 61.8247 45.7929 62.1611 46.5776C62.186 46.6399 62.2109 46.6898 62.2358 46.752C62.2732 46.8517 62.323 46.9514 62.3603 47.051C62.3977 47.1382 62.4351 47.213 62.46 47.2877C62.4974 47.3873 62.5347 47.4745 62.5721 47.5742C62.6219 47.6863 62.6593 47.7984 62.7091 47.9105C63.1576 49.0939 63.4815 50.2773 63.6808 51.4358C63.7057 51.5728 63.7181 51.7098 63.7431 51.8469C63.7555 51.9465 63.768 52.0586 63.7804 52.1707C63.7929 52.2579 63.8053 52.3327 63.8053 52.4074C63.8178 52.4572 63.8178 52.5195 63.8178 52.5694C63.8302 52.7064 63.8427 52.8434 63.8427 52.9804C63.8552 53.0552 63.8552 53.1175 63.8552 53.1797C63.8925 54.0268 63.8552 54.849 63.7057 55.6462C63.6808 55.7583 63.6683 55.8704 63.6434 55.9825C63.6309 56.0697 63.606 56.1444 63.5936 56.2192C63.5687 56.3313 63.5437 56.4434 63.5064 56.5555C63.4815 56.6427 63.4565 56.7299 63.4316 56.8171C63.4067 56.9168 63.3694 57.004 63.3444 57.1036C63.332 57.1535 63.3071 57.2033 63.2946 57.2531C63.2697 57.3029 63.2573 57.3528 63.2323 57.4026C63.2199 57.4275 63.2074 57.4524 63.2074 57.4773C63.1825 57.5396 63.1576 57.6143 63.1202 57.6766C63.1078 57.7015 63.1078 57.714 63.0953 57.7389C63.0579 57.8261 63.0206 57.9133 62.9707 58.0005C62.8835 58.1874 62.7839 58.3742 62.6842 58.5486C62.6344 58.6358 62.5846 58.723 62.5347 58.8102C62.4974 58.8725 62.4476 58.9472 62.4102 59.0095C62.3354 59.1216 62.2607 59.2337 62.1735 59.3458C62.1237 59.4206 62.0738 59.4953 62.0116 59.5701C61.9368 59.6573 61.8621 59.7569 61.7873 59.8441C61.7251 59.9189 61.6628 59.9936 61.6005 60.0559C61.588 60.0683 61.5756 60.0808 61.5631 60.0932C61.4385 60.2427 61.3015 60.3922 61.1645 60.5292C61.1271 60.5666 61.0898 60.604 61.0524 60.6413C61.015 60.6787 60.9776 60.7161 60.9403 60.7535C60.8655 60.8282 60.7783 60.9029 60.7036 60.9777C60.6164 61.0524 60.5292 61.1272 60.442 61.2019C60.3548 61.2766 60.2676 61.3514 60.1804 61.4137C60.006 61.5631 59.8192 61.7002 59.6323 61.8372C59.5451 61.8995 59.4579 61.9618 59.3707 62.024C59.2835 62.0863 59.1839 62.1486 59.0967 62.2109C59.0593 61.5009 59.0718 60.8407 59.1216 60.2178C59.1465 60.0808 59.159 59.9811 59.159 59.8815Z" fill="white" fill-opacity="0.38"/>
<path d="M37.97 43.9118C38.0945 44.1734 38.2191 44.435 38.3562 44.6841C38.3562 44.6966 38.3686 44.709 38.3811 44.7215C38.4558 44.8585 38.5305 44.9955 38.6177 45.1326C38.6551 45.1824 38.68 45.2322 38.7174 45.282C38.7174 45.282 38.7174 45.2945 38.7298 45.2945C38.7921 45.4066 38.8669 45.5063 38.9416 45.6184C39.0164 45.718 39.0786 45.8301 39.1534 45.9298C39.1534 45.9298 39.1534 45.9422 39.1658 45.9422C39.1783 45.9671 39.1908 45.9796 39.2032 45.9921C39.2655 46.0793 39.3278 46.1665 39.3901 46.2412C39.4523 46.3284 39.5271 46.4156 39.5894 46.5028C39.6018 46.5277 39.6143 46.5402 39.6267 46.5526C39.7638 46.727 39.9008 46.8889 40.0503 47.0633C40.0752 47.0882 40.0876 47.1007 40.1125 47.1256C40.1997 47.2253 40.287 47.3125 40.3617 47.4121C40.4489 47.5118 40.5361 47.599 40.6233 47.6986C40.6482 47.7236 40.6607 47.7485 40.6856 47.7609C40.7479 47.8357 40.8226 47.9104 40.8973 47.9727C40.9098 47.9851 40.9222 48.0101 40.9347 48.0225C40.9721 48.0599 41.0219 48.1097 41.0593 48.1471C41.271 48.3589 41.4828 48.5706 41.6946 48.7699C42.0807 49.1436 42.4793 49.5049 42.8531 49.8661C43.3762 50.3519 43.8994 50.8377 44.3977 51.336L44.435 51.3734C44.5347 51.473 44.6468 51.5727 44.7465 51.6848C44.7838 51.7222 44.8212 51.7595 44.8586 51.7969C44.9333 51.8841 45.0205 51.9589 45.0953 52.0336C45.1575 52.0959 45.2198 52.1582 45.2696 52.2205C45.3568 52.3201 45.4441 52.4073 45.5312 52.507C45.606 52.5942 45.6807 52.6689 45.743 52.7561C45.8178 52.8308 45.8925 52.918 45.9548 53.0052C46.0295 53.0924 46.0918 53.1672 46.1665 53.2543C46.2039 53.3042 46.2537 53.354 46.2911 53.4038C46.3534 53.4786 46.4157 53.5533 46.4655 53.6405C46.5652 53.7651 46.6648 53.9021 46.752 54.0391C46.7769 54.0765 46.8143 54.1263 46.8392 54.1637C46.8766 54.2135 46.9015 54.2509 46.9389 54.3007C46.9887 54.3755 47.0385 54.4502 47.0883 54.5249C47.1631 54.6371 47.2254 54.7492 47.3001 54.8613C47.3499 54.9485 47.3998 55.0357 47.4496 55.1229C47.462 55.1478 47.487 55.1852 47.4994 55.2101C47.5368 55.2724 47.5617 55.3222 47.5866 55.3845C47.5991 55.4094 47.6115 55.4343 47.624 55.4592C47.6738 55.5589 47.7236 55.646 47.7735 55.7457C47.7735 55.7457 47.7735 55.7457 47.7735 55.7582C47.8233 55.8578 47.8731 55.9575 47.9229 56.0696C47.9728 56.1692 48.0102 56.2689 48.0475 56.3685C48.0973 56.4807 48.1347 56.5803 48.1845 56.6924C48.2219 56.8045 48.2717 56.9166 48.3091 57.0287C48.334 57.091 48.3465 57.1409 48.3714 57.2032C48.3963 57.253 48.4088 57.3153 48.4212 57.3776C48.4461 57.4648 48.4711 57.5395 48.496 57.6267C48.5209 57.7139 48.5458 57.8011 48.5707 57.8883C48.5832 57.9132 48.5832 57.9506 48.5956 57.9755C48.6081 58.0378 48.6205 58.0876 48.633 58.1499C48.6579 58.2495 48.6828 58.3492 48.6953 58.4488C48.7202 58.5734 48.7451 58.698 48.77 58.8225C48.7949 58.9346 48.8074 59.0468 48.8198 59.1464C48.8323 59.1962 48.8323 59.2336 48.8448 59.2834C48.8572 59.3955 48.8697 59.4952 48.8821 59.6073C48.8946 59.7443 48.907 59.8814 48.9195 60.0184C48.9319 60.143 48.932 60.2675 48.9444 60.3921V60.417C48.9444 60.4544 48.9444 60.4917 48.9569 60.5291C48.9569 60.6412 48.9693 60.7533 48.9693 60.8779C48.9693 61.0149 48.9693 61.1644 48.9693 61.3139C48.9693 61.5879 48.9693 61.862 48.9444 62.1485C48.3589 61.7623 47.8233 61.3512 47.3375 60.9028C47.2503 60.8281 47.1631 60.7409 47.0883 60.6661C47.0634 60.6412 47.0385 60.6163 47.0011 60.5789C46.9264 60.5042 46.8517 60.4294 46.7769 60.3423C46.7645 60.3298 46.7645 60.3298 46.752 60.3174C46.6897 60.2551 46.6399 60.1928 46.5776 60.1305C46.5652 60.118 46.5527 60.1056 46.5402 60.0931C46.5153 60.0682 46.478 60.0308 46.4531 60.0059C46.4406 59.981 46.4157 59.9686 46.4032 59.9561C46.3534 59.8938 46.3036 59.8315 46.2413 59.7693C46.2164 59.7443 46.1914 59.707 46.1665 59.682C46.0918 59.5948 46.0295 59.5077 45.9672 59.4205C45.9174 59.3582 45.88 59.2959 45.8302 59.2212C45.8178 59.2087 45.8053 59.1962 45.8053 59.1838C45.7679 59.134 45.7306 59.0841 45.7056 59.0343C45.5562 58.8101 45.4191 58.5859 45.2946 58.3616L45.2821 58.3492C45.2697 58.3243 45.2572 58.3118 45.2447 58.2869C45.2198 58.2495 45.2074 58.2122 45.1825 58.1748C45.1825 58.1623 45.17 58.1623 45.17 58.1499C45.1451 58.1 45.1202 58.0627 45.0953 58.0128C45.0703 57.963 45.0454 57.9256 45.033 57.8758C45.0081 57.826 44.9831 57.7762 44.9582 57.7263C44.9582 57.7139 44.9458 57.7139 44.9458 57.7014C44.9084 57.6142 44.871 57.527 44.8337 57.4274C44.8212 57.4025 44.8212 57.39 44.8088 57.3651C44.7714 57.2779 44.7465 57.1907 44.7091 57.1035C44.6966 57.0786 44.6842 57.0412 44.6717 57.0163C44.6344 56.9042 44.597 56.8045 44.5721 56.6924C44.5347 56.5679 44.4973 56.4433 44.4724 56.3187C44.4475 56.2191 44.4226 56.1319 44.4101 56.0322C44.4101 56.0198 44.3977 56.0073 44.3977 55.9949C44.3852 55.945 44.3728 55.9077 44.3728 55.8578C44.3478 55.7582 44.3354 55.6585 44.3105 55.5589C44.2482 55.1727 44.1984 54.7865 44.1735 54.3879C44.161 54.3132 44.161 54.226 44.161 54.1512C44.161 54.0765 44.1485 53.9893 44.1485 53.9146C44.1485 53.8274 44.1485 53.7526 44.1485 53.6654C44.1485 53.5907 44.1485 53.5284 44.1485 53.4537C43.4011 52.6315 42.5665 51.8592 41.707 51.0495C41.5451 50.9 41.3831 50.7506 41.2212 50.6011C41.0219 51.6724 40.9222 52.7063 40.9222 53.7153C40.9222 53.9021 40.9222 54.0765 40.9347 54.2509C40.9596 54.7118 40.997 55.1727 41.0593 55.6211C41.0717 55.6959 41.0842 55.7831 41.0966 55.8578C41.1091 55.9326 41.1216 56.0197 41.134 56.0945C41.8939 60.4917 44.7216 63.8924 49.5548 66.1845L51.498 67.1063L51.8344 64.9762C51.8593 64.8142 51.8842 64.6523 51.9091 64.4904C51.934 64.3658 51.9465 64.2412 51.9589 64.1167C51.9714 64.0544 51.9714 63.9921 51.9838 63.9298C51.9963 63.8675 51.9963 63.8052 52.0088 63.743C52.0212 63.6059 52.0337 63.4689 52.0461 63.3319C52.0586 63.2322 52.0711 63.1326 52.0711 63.0329C52.1084 62.6218 52.1209 62.2108 52.1333 61.8246C52.1333 61.6627 52.1333 61.5007 52.1333 61.3512C52.1333 61.2765 52.1333 61.2018 52.1333 61.1395V60.9651C52.1209 60.7284 52.1209 60.5042 52.1084 60.2675C52.096 59.9561 52.0711 59.6571 52.0337 59.3706C52.0212 59.2211 51.9963 59.0717 51.9714 58.9222C51.9465 58.7976 51.934 58.6606 51.9091 58.536C51.9091 58.5111 51.9091 58.4987 51.8967 58.4862C51.8842 58.399 51.8717 58.3243 51.8593 58.2495C51.8344 58.0751 51.797 57.9132 51.7596 57.7388C51.7472 57.6641 51.7223 57.5893 51.7098 57.5146C51.6849 57.4398 51.6724 57.3651 51.66 57.2779C51.6351 57.2032 51.6226 57.116 51.5977 57.0412C51.5728 56.9665 51.5603 56.8793 51.5354 56.8045C51.5105 56.6924 51.4731 56.5803 51.4358 56.4682C51.4108 56.381 51.3859 56.3063 51.361 56.2191C51.3236 56.082 51.2738 55.945 51.224 55.8205C51.2115 55.7831 51.1991 55.7457 51.1866 55.7083C51.1492 55.5962 51.0994 55.4966 51.0621 55.3845C51.0371 55.3222 51.0122 55.2599 50.9873 55.1976C50.9624 55.1353 50.9375 55.073 50.9001 55.0108C50.8378 54.8737 50.7756 54.7367 50.7133 54.5872C50.6759 54.5125 50.6385 54.4377 50.6011 54.363C50.5389 54.226 50.4641 54.089 50.3894 53.9519C50.2399 53.653 50.078 53.3665 49.9036 53.0924C49.8413 52.9803 49.7666 52.8806 49.7043 52.7685C49.6794 52.7436 49.6669 52.7063 49.642 52.6813C49.5797 52.5817 49.5174 52.4945 49.4551 52.3948C49.2932 52.1582 49.1188 51.909 48.9444 51.6848C48.8572 51.5727 48.77 51.4481 48.6704 51.336C48.5707 51.2114 48.471 51.0869 48.3714 50.9748C48.3216 50.9125 48.2717 50.8502 48.2094 50.7879C48.1347 50.7007 48.06 50.6135 47.9977 50.5388C47.9229 50.4516 47.8482 50.3644 47.7735 50.2897C47.7112 50.2149 47.6489 50.1402 47.5742 50.0779C47.5368 50.0405 47.4994 50.0031 47.4621 49.9658C47.3749 49.8661 47.2877 49.7789 47.188 49.6793C47.1257 49.617 47.0759 49.5547 47.0136 49.5049C46.9513 49.4301 46.8766 49.3678 46.8018 49.2931C46.752 49.2433 46.7022 49.1935 46.6523 49.1436C46.5527 49.044 46.4655 48.9568 46.3658 48.8571L46.3534 48.8447C46.2537 48.745 46.1541 48.6578 46.0544 48.5582C45.8053 48.309 45.5437 48.0723 45.2946 47.8481C45.1825 47.7485 45.0828 47.6488 44.9707 47.5492C44.8835 47.4744 44.8088 47.3997 44.7216 47.3249C44.6344 47.2502 44.5596 47.1755 44.4849 47.1007C44.3977 47.026 44.3229 46.9512 44.2482 46.8765C43.7375 46.3907 43.2517 45.9298 42.8032 45.4564C42.579 45.2073 42.3548 44.9706 42.1555 44.7215C42.0932 44.6467 42.0309 44.572 41.9811 44.5097C41.9437 44.4723 41.9063 44.4225 41.8814 44.3851C41.8316 44.3229 41.7818 44.2606 41.7319 44.1858C41.5824 43.9865 41.4454 43.7872 41.3209 43.5879C41.3084 43.563 41.2959 43.5505 41.2835 43.5256C41.2337 43.4384 41.1838 43.3512 41.134 43.264C41.0966 43.2142 41.0717 43.1519 41.0468 43.0896C41.0219 43.0274 40.9845 42.9775 40.9596 42.9152C40.9347 42.853 40.9098 42.8031 40.8724 42.7409C40.8724 42.7284 40.86 42.7159 40.86 42.7035C40.835 42.6661 40.8226 42.6163 40.7977 42.5665C40.7728 42.5042 40.7478 42.4543 40.7229 42.392C40.698 42.3422 40.6856 42.2924 40.6606 42.2426C40.6606 42.2301 40.6482 42.2177 40.6482 42.1928C40.6233 42.1429 40.6108 42.0806 40.5859 42.0308C40.5485 41.9062 40.5112 41.7817 40.4738 41.6571C40.4613 41.6073 40.4489 41.5574 40.4364 41.5201C40.424 41.4703 40.4115 41.4204 40.3991 41.3582C40.3866 41.2834 40.3742 41.2211 40.3617 41.1464C40.3617 41.1215 40.3492 41.0965 40.3492 41.0716C40.3368 41.0218 40.3243 40.972 40.3243 40.9222C40.3243 40.8848 40.3119 40.8599 40.3119 40.8225C40.2994 40.7727 40.2994 40.7353 40.2869 40.6855C40.2745 40.6107 40.2745 40.536 40.262 40.4737C40.2496 40.399 40.2496 40.3367 40.2496 40.262C40.2371 40.1872 40.2371 40.1125 40.2371 40.0253C40.2371 39.826 40.2371 39.6142 40.2496 39.4024C40.2496 39.3526 40.2496 39.2903 40.262 39.2405C40.262 39.1907 40.262 39.1408 40.2745 39.091C40.2745 39.0786 40.2745 39.0785 40.2745 39.0661C40.2869 38.9664 40.2994 38.8543 40.3119 38.7422C40.3243 38.6675 40.3243 38.6052 40.3368 38.5305C40.3368 38.4806 40.3492 38.4308 40.3617 38.3685C40.3742 38.2689 40.3991 38.1692 40.4115 38.0696C40.424 37.9948 40.4364 37.9325 40.4489 37.8578C40.4738 37.7581 40.4863 37.6585 40.5112 37.5464C40.5361 37.4592 40.5485 37.3844 40.5735 37.2972C40.6108 37.1353 40.6607 36.9609 40.7105 36.7865C40.7354 36.6993 40.7603 36.6121 40.7977 36.5249C40.8226 36.4377 40.8475 36.3505 40.8849 36.2509C40.9098 36.1637 40.9472 36.064 40.9721 35.9768C40.9721 35.9768 40.9721 35.9768 40.9721 35.9644C41.4081 35.1049 41.869 34.2329 42.3672 33.3609C42.4669 33.1865 42.5665 33.0121 42.6662 32.8377C42.7658 32.6633 42.878 32.4765 42.9776 32.3021C43.0773 32.1401 43.1769 31.9782 43.2766 31.8038C43.289 31.7789 43.3015 31.754 43.3139 31.7291C43.4136 31.5671 43.5257 31.3927 43.6254 31.2183C43.7375 31.044 43.8496 30.8571 43.9617 30.6827C44.0738 30.5083 44.1859 30.3215 44.3105 30.1471C44.4351 29.9602 44.5596 29.7609 44.6966 29.5616C44.8088 29.3997 44.9209 29.2252 45.033 29.0633C45.1576 28.8889 45.2697 28.7145 45.3942 28.5401C45.7306 28.0543 46.0793 27.5685 46.4406 27.0827C46.5527 26.9332 46.6648 26.7837 46.7769 26.6342C47.0759 26.2356 47.3873 25.8246 47.6987 25.4259C47.7859 25.3014 47.8856 25.1893 47.9852 25.0647C48.0724 24.9526 48.1596 24.8529 48.2344 24.7408C48.3714 24.5664 48.5209 24.3796 48.6704 24.2052C48.8198 24.0183 48.9693 23.8439 49.1188 23.6571C49.2683 23.4827 49.4178 23.2958 49.5672 23.1214C49.6794 22.9844 49.8039 22.8474 49.9285 22.6979C50.0531 22.5484 50.1776 22.3989 50.3022 22.2495C51.1243 21.2903 51.9963 20.3311 52.8932 19.3719C53.0676 19.1851 53.2295 19.0107 53.4164 18.8238C53.5908 18.637 53.7652 18.4502 53.9396 18.2758C54.114 18.4626 54.3008 18.6495 54.4627 18.8238C54.6371 19.0107 54.8115 19.1976 54.9859 19.3719C55.8828 20.3311 56.7423 21.2903 57.5769 22.2495C57.7015 22.3989 57.8261 22.5484 57.9506 22.6979C58.0628 22.8349 58.1873 22.972 58.2994 23.1214C58.4489 23.2958 58.5984 23.4827 58.7479 23.6571C58.8974 23.8439 59.0468 24.0183 59.1963 24.2052C59.3458 24.392 59.4828 24.5664 59.6323 24.7408C59.7195 24.8529 59.8067 24.9526 59.8814 25.0647C59.9686 25.1893 60.0683 25.3014 60.1679 25.4259C60.4794 25.8246 60.7908 26.2356 61.0898 26.6342C61.2019 26.7837 61.314 26.9332 61.4261 27.0827C61.7873 27.5685 62.1361 28.0543 62.4725 28.5401L62.8337 29.0633C62.9458 29.2252 63.0579 29.3997 63.17 29.5616C63.2946 29.7609 63.4316 29.9478 63.5562 30.1471C63.6683 30.3215 63.7929 30.4958 63.8925 30.6827C64.0046 30.8571 64.1292 31.044 64.2288 31.2183C64.3285 31.3803 64.4406 31.5547 64.5403 31.7291C64.5527 31.754 64.5652 31.7789 64.5776 31.8038C64.6773 31.9657 64.7769 32.1277 64.8766 32.3021C64.9887 32.4765 65.0884 32.6633 65.188 32.8377C65.2877 33.0121 65.3998 33.1865 65.487 33.3609C65.9853 34.2329 66.4462 35.1049 66.8821 35.9644V35.9768C66.8821 35.9893 66.8946 36.0017 66.8946 36.0142C66.9195 36.0889 66.9444 36.1637 66.9694 36.2509C66.9943 36.3381 67.0316 36.4253 67.0565 36.5249C67.0815 36.5997 67.1064 36.6744 67.1188 36.7491C67.1687 36.9235 67.2185 37.0855 67.2559 37.2474C67.2808 37.3222 67.2932 37.3969 67.3057 37.4592C67.3181 37.509 67.3306 37.5713 67.343 37.6211C67.343 37.6211 67.343 37.6211 67.343 37.6336C67.3555 37.6834 67.368 37.7457 67.3804 37.7955C67.3929 37.8827 67.4178 37.9574 67.4302 38.0322C67.4427 38.0945 67.4552 38.1443 67.4552 38.2066C67.4676 38.2938 67.4801 38.3685 67.4925 38.4433C67.505 38.5305 67.5174 38.6052 67.5299 38.6799C67.5299 38.7173 67.5424 38.7671 67.5424 38.8045C67.5424 38.817 67.5424 38.8294 67.5424 38.8419C67.5424 38.8793 67.5548 38.9042 67.5548 38.9415C67.5673 39.0786 67.5797 39.228 67.5922 39.3651C67.5922 39.4273 67.6046 39.4772 67.6046 39.5395V39.5519C67.6046 39.6017 67.6046 39.6391 67.6046 39.6765C67.6046 39.826 67.6046 39.9755 67.6046 40.1125C67.6046 40.1997 67.5922 40.2993 67.5922 40.3865C67.5922 40.4114 67.5922 40.4239 67.5922 40.4363C67.5797 40.5235 67.5797 40.6107 67.5673 40.6855C67.5424 40.8848 67.505 41.0841 67.4676 41.2709C67.4676 41.2959 67.4552 41.3083 67.4552 41.3332C67.4552 41.3457 67.4552 41.3457 67.4427 41.3582C67.4427 41.3706 67.4427 41.3706 67.4427 41.3831C67.4302 41.4453 67.4178 41.4952 67.4053 41.5574C67.3804 41.6446 67.368 41.7319 67.3306 41.8066C67.2808 41.9934 67.2185 42.1678 67.1437 42.3422C67.1188 42.417 67.0939 42.4793 67.0565 42.554C67.0441 42.5789 67.0316 42.6163 67.0192 42.6412C66.9444 42.8031 66.8697 42.9526 66.7949 43.1021C66.7576 43.1768 66.7078 43.2516 66.6704 43.3263C66.633 43.3886 66.6081 43.4384 66.5707 43.5007C66.5458 43.5256 66.5334 43.563 66.5084 43.6004C66.4711 43.6626 66.4337 43.7125 66.3963 43.7747C66.3839 43.7997 66.3714 43.8246 66.3465 43.8495L66.334 43.862C66.2967 43.9242 66.2593 43.9741 66.2219 44.0239C66.7327 45.145 67.1936 46.2786 67.5548 47.4495C67.5673 47.4371 67.5797 47.4246 67.5922 47.4121C67.6794 47.3249 67.7541 47.2377 67.8289 47.1381C67.8413 47.1256 67.8413 47.1256 67.8538 47.1132C68.0282 46.9139 68.1901 46.7145 68.3645 46.5028C68.377 46.4903 68.3894 46.4779 68.4019 46.4654C68.4642 46.3907 68.5264 46.3159 68.5763 46.2287C68.651 46.1291 68.7257 46.0294 68.8005 45.9173C68.8254 45.8799 68.8503 45.855 68.8628 45.8177C68.9126 45.7429 68.9624 45.6682 69.0123 45.5934C69.087 45.4938 69.1493 45.3817 69.224 45.2696C69.2988 45.1575 69.3735 45.0329 69.4358 44.9083C69.4856 44.8211 69.5354 44.7464 69.5728 44.6592C69.6102 44.5969 69.6351 44.5346 69.6725 44.4723C69.6849 44.4474 69.6974 44.435 69.6974 44.4101C69.7597 44.3104 69.8095 44.1983 69.8593 44.0862C69.8842 44.0239 69.9216 43.9492 69.9465 43.8869C70.9804 41.545 71.2296 38.6301 69.8219 34.6813H69.8344C66.5209 28.0419 61.4136 21.1906 55.0233 14.8003L53.8897 13.6543L52.7562 14.8003C46.3659 21.1906 41.2586 28.0419 37.9451 34.6813H37.9575C36.6869 38.655 36.9361 41.5699 37.97 43.9118Z" fill="white" fill-opacity="0.38"/>
<path d="M22.1125 86.4642H24.8405V94.9846H28.3907V86.4642H31.1187V83.0261H22.1125V86.4642Z" fill="white" fill-opacity="0.38"/>
<path d="M42.392 82.7271C41.0342 82.7271 39.9505 83.1381 39.1408 83.9478C38.3311 84.77 37.92 85.8537 37.92 87.224V94.9845H41.4827V87.3485C41.4827 86.6136 41.7318 86.2523 42.2425 86.2523C42.7657 86.2523 43.0273 86.6136 43.0273 87.3485V94.9845H46.59V87.3485C46.59 85.8537 46.2287 84.7201 45.5187 83.9229C44.7837 83.1257 43.7498 82.7271 42.392 82.7271Z" fill="white" fill-opacity="0.38"/>
<path d="M70.1832 86.9998C70.1832 85.8164 69.7597 84.8324 68.9002 84.0601C68.1403 83.3749 67.0566 83.0261 65.6739 83.0261H61.1022V94.9846H64.6649V86.24H65.3002C66.1597 86.24 66.5957 86.5265 66.5957 87.087C66.5957 87.7223 66.222 88.0462 65.4746 88.0462H65.2005V91.123L66.932 94.9846H70.669L68.6137 90.0518C69.6476 89.2296 70.1832 88.2081 70.1832 86.9998Z" fill="white" fill-opacity="0.38"/>
<path d="M83.649 62.9955L84.2593 61.5505L83.0635 62.5471C81.7929 63.6308 80.3978 64.4156 78.8033 64.9139C78.4171 65.0135 78.006 65.1256 77.6074 65.2377L77.4829 65.2626L77.1964 65.3374V65.3499C70.9431 67.181 65.8981 70.208 62.1984 74.3436C61.9991 74.5554 61.8122 74.7796 61.6254 75.0038C61.2143 75.5021 60.8157 76.0128 60.4545 76.5236C60.0558 77.0717 59.6821 77.6572 59.3458 78.2302C59.0967 78.6662 58.86 79.1021 58.6358 79.5256C58.6358 79.5256 58.5984 79.5879 58.5859 79.6128C58.5112 79.7499 58.0628 80.5596 57.5147 81.718C57.2032 82.3783 56.9167 83.0135 56.6801 83.6239C56.6302 83.7485 56.5679 83.8855 56.5181 84.0226C56.3437 84.4461 56.1818 84.8945 56.0323 85.3679C55.8205 86.0156 55.6586 86.6135 55.5465 87.1616L53.815 84.6828L52.096 87.1866C51.9839 86.626 51.8219 86.0156 51.5977 85.3679C51.4482 84.907 51.2863 84.4461 51.1119 84.0226C51.0621 83.8855 51.0122 83.7485 50.95 83.6239C50.7008 83.0135 50.4268 82.3783 50.1153 81.718C49.5548 80.5596 49.1188 79.7499 49.0441 79.6128C49.0316 79.5879 48.9942 79.5256 48.9942 79.5256C48.7825 79.1021 48.5333 78.6662 48.2842 78.2302C47.9479 77.6447 47.5617 77.0717 47.1755 76.5236C46.8143 76.0128 46.4157 75.4896 46.0046 75.0038C45.8178 74.7796 45.6309 74.5554 45.4316 74.3436C41.7319 70.208 36.6869 67.181 30.4337 65.3499V65.3374L30.1472 65.2626L30.0226 65.2377C29.624 65.1256 29.2129 65.0135 28.8267 64.9139C27.2323 64.4156 25.8371 63.6308 24.5665 62.5471L23.3707 61.5505L23.981 62.9955C27.2572 69.6225 31.617 74.5056 36.9735 77.4952C37.2226 77.6322 37.4717 77.7692 37.7333 77.8938C38.8918 78.4917 40.1126 78.99 41.3707 79.4011C42.1306 79.6378 42.8281 79.8246 43.5133 79.9741L43.588 79.9865C43.6503 79.999 43.7873 80.0239 43.9866 80.0737L44.9209 80.2606L44.4475 79.5256C43.9368 78.7409 43.3638 77.981 42.7659 77.2834L42.716 77.2212C42.6413 77.134 42.579 77.0468 42.5167 76.9845C42.442 76.8973 42.3672 76.8225 42.3174 76.7602L42.2427 76.6731C41.7942 76.1997 41.3084 75.7263 40.8101 75.2779C40.3866 74.8917 39.9755 74.5554 39.5645 74.2315C39.3652 74.082 39.1783 73.9326 38.979 73.7956L38.9042 73.7333C38.6925 73.5713 38.4683 73.4218 38.2316 73.2599C38.1693 73.2101 38.107 73.1727 38.0447 73.1229L37.8704 73.0108C37.833 72.9859 37.7084 72.9111 37.7084 72.9111C37.5091 72.7741 37.3098 72.6371 37.1105 72.5C36.6496 72.1762 36.2385 71.8648 35.8399 71.5284C35.6904 71.4039 35.5285 71.2668 35.3541 71.1173L35.2171 71.0052C35.0676 70.8807 34.9305 70.7561 34.7935 70.6191L34.6191 70.4696L34.4946 70.345C34.3326 70.1955 34.1831 70.0461 34.0212 69.8841C33.4357 69.2986 32.8627 68.6758 32.3146 68.0156C32.215 67.891 32.1029 67.7665 31.9907 67.617C31.7914 67.3803 31.5921 67.1187 31.3804 66.8447C36.8364 68.6384 41.271 71.4163 44.5721 75.116C44.7589 75.3153 44.9333 75.527 45.1077 75.7388C45.3569 76.0378 45.6558 76.4115 45.9299 76.7727C46.4281 77.4454 46.889 78.1305 47.2877 78.8281C47.5243 79.2142 47.7486 79.6378 47.9728 80.0737L47.9977 80.1236L48.0351 80.1983C48.2095 80.4973 48.6081 81.2571 49.0565 82.2163L49.069 82.2412L49.0814 82.2786C49.1562 82.4406 49.2309 82.6149 49.3181 82.8018C50.1776 84.6952 50.7631 86.3769 50.9998 87.6848L51.0122 87.7346C51.0122 87.7346 51.0621 88.0087 51.0621 88.0834C51.0994 88.3949 51.1243 88.6814 51.1243 88.943V95.3458H56.4558V88.943C56.4558 88.6814 56.4807 88.3949 56.5181 88.0834C56.5306 88.0087 56.568 87.7471 56.568 87.7346L56.5804 87.6848C56.8171 86.3769 57.4026 84.6952 58.2621 82.8018C58.3493 82.6149 58.424 82.453 58.4988 82.2786L58.5112 82.2412L58.5237 82.2163C58.9846 81.2571 59.3832 80.4973 59.5451 80.1983L59.5825 80.1236L59.6074 80.0737C59.8316 79.6253 60.0683 79.2142 60.2925 78.8281C60.7036 78.1305 61.152 77.4454 61.6503 76.7727C61.9244 76.399 62.2109 76.0378 62.4725 75.7388C62.6469 75.527 62.8212 75.3153 63.0081 75.116C66.3091 71.4163 70.7437 68.6384 76.1998 66.8447C75.988 67.1187 75.7887 67.3803 75.5894 67.617C75.4773 67.7665 75.3777 67.891 75.2656 68.0156C74.7175 68.6758 74.1444 69.2986 73.559 69.8841C73.397 70.0461 73.2476 70.1955 73.0856 70.345L72.9611 70.4696L72.7867 70.6191C72.6496 70.7436 72.5001 70.8807 72.3631 71.0052L72.2261 71.1173C72.0517 71.2668 71.8898 71.4039 71.7403 71.5284C71.3541 71.8523 70.9306 72.1637 70.4697 72.5C70.2704 72.6371 70.0711 72.7741 69.8718 72.9111C69.8718 72.9111 69.7472 72.9983 69.7098 73.0108L69.5354 73.1229C69.4732 73.1727 69.4109 73.2101 69.3486 73.2599C69.1119 73.4218 68.8877 73.5713 68.6759 73.7333L68.6012 73.7956C68.4019 73.9326 68.215 74.082 68.0157 74.2315C67.5922 74.5554 67.1936 74.8917 66.77 75.2779C66.2718 75.7263 65.7859 76.1997 65.3375 76.6731L65.2628 76.7602C65.2129 76.8225 65.1382 76.8973 65.0635 76.9845C65.0012 77.0468 64.9389 77.134 64.8642 77.2212L64.8143 77.2834C64.2039 77.981 63.6434 78.7409 63.1327 79.5256L62.6593 80.2606L63.5936 80.0737C63.7804 80.0239 63.9174 79.999 63.9922 79.9865L64.0669 79.9741C64.7396 79.8246 65.4496 79.6378 66.2095 79.4011C67.4552 79.0025 68.6759 78.4917 69.8469 77.8938C70.096 77.7692 70.3576 77.6322 70.6067 77.4952C76.013 74.5056 80.3853 69.635 83.649 62.9955Z" fill="white" fill-opacity="0.38"/>
<path d="M85.0689 84.5831C83.8606 83.3499 82.4031 82.7271 80.709 82.7271C78.9152 82.7271 77.4079 83.3374 76.1747 84.5457C74.9415 85.7665 74.3187 87.2489 74.3187 88.9928C74.3187 90.7243 74.929 92.2067 76.1623 93.4399C77.3955 94.6606 78.8654 95.2835 80.6093 95.2835C82.3533 95.2835 83.8356 94.6731 85.0564 93.4523C86.2772 92.2316 86.8875 90.7492 86.8875 89.0053C86.8875 87.2862 86.2772 85.8163 85.0689 84.5831ZM82.4779 90.961C81.9671 91.4966 81.3443 91.7582 80.6093 91.7582C79.8868 91.7582 79.264 91.4842 78.7533 90.9485C78.2301 90.4129 77.981 89.7651 77.981 89.0053C77.981 88.2454 78.2301 87.5977 78.7533 87.062C79.264 86.5264 79.8868 86.2523 80.6218 86.2523C81.3567 86.2523 81.9796 86.5264 82.4903 87.0496C83.001 87.5852 83.2626 88.233 83.2626 89.0053C83.2377 89.7776 82.9886 90.4254 82.4779 90.961Z" fill="white" fill-opacity="0.38"/>
</svg>
