<svg width="109" height="109" viewBox="0 0 109 109" fill="none" xmlns="http://www.w3.org/2000/svg">
<g clip-path="url(#clip0_138_6055)">
<path d="M53.95 12.7366C55.4875 13.157 56.675 14.9002 56.8375 16.9773C57.025 19.3758 57.7875 24.1109 59.3875 26.0149C59.575 26.2374 59.9125 26.2374 60.0875 26.0149C60.2375 25.8418 60.2375 25.5945 60.0875 25.4338C58.7625 23.876 57.9625 19.487 57.7625 16.9155C57.5625 14.4181 56.125 12.3905 54.2 11.8588C52.475 11.389 51.1375 11.7847 50.6125 12.9345C50.375 13.4537 50.5625 13.8246 50.6875 13.9977C51.1125 14.5541 52.0375 14.5911 52.475 14.5293C52.65 14.5046 52.7875 14.4675 52.9125 14.4304C53.275 14.3192 53.3625 13.8493 53.0625 13.6268C52.9375 13.5279 52.7875 13.5032 52.6375 13.5403L52.3375 13.6268C51.95 13.6763 51.5125 13.5774 51.4125 13.4537C51.3875 13.429 51.425 13.3301 51.4375 13.3054C51.775 12.5883 52.6875 12.3905 53.95 12.7366Z" fill="white" fill-opacity="0.38"/>
<path d="M62.275 28.8336C62.125 28.5863 61.7875 28.5369 61.575 28.7223C61.4125 28.8707 61.375 29.1056 61.4875 29.291C61.9 29.9957 62.7125 31.9491 61.9125 35.5098C60.8375 40.2697 55.2375 47.6382 55.1875 47.7124L55.925 48.2564C56.1625 47.9473 61.7 40.6529 62.825 35.6952C63.675 31.8626 62.8 29.699 62.275 28.8336Z" fill="white" fill-opacity="0.38"/>
<path d="M56.25 28.537C55.4625 29.254 54.8125 30.8489 54.4125 32.0234C54.3 31.6525 54.15 31.1704 53.9625 30.5646C53.2625 28.2773 51.2 27.3377 50.2375 27.0163C49.975 26.9297 49.7 27.0905 49.6375 27.3501C49.5875 27.5726 49.725 27.7952 49.9375 27.8817C50.725 28.1537 52.5 28.945 53.0625 30.8242C53.925 33.6678 54.0125 33.7543 54.1 33.8408L54.2 33.9398C54.4125 34.1499 54.7625 34.051 54.8375 33.7667L54.875 33.6307C55.125 32.6787 55.9625 30.0329 56.8625 29.2046C58.2625 27.9312 59.6125 27.4861 61.2625 27.7704C63.0375 28.0795 65.7875 29.7733 66.325 32.5922C66.7875 35.0154 66.175 37.5993 64.45 40.4676C63.2875 42.4087 61.45 45.0297 60.775 45.9817C60.625 46.1918 60.675 46.4638 60.8875 46.6122C61.1 46.7606 61.3875 46.7111 61.525 46.5009C62.2125 45.5366 64.05 42.9032 65.2375 40.9251C67.05 37.896 67.725 35.0277 67.225 32.4191C66.65 29.3653 63.8 27.2759 61.425 26.8679C58.8875 26.4352 57.25 27.6097 56.25 28.537Z" fill="white" fill-opacity="0.38"/>
<path d="M53.425 46.4885C53.2875 46.2784 53 46.2166 52.7875 46.3525C52.575 46.4885 52.5125 46.7729 52.65 46.9831L55.375 51.2237C55.5125 51.4339 55.8 51.4957 56.0125 51.3597C56.225 51.2237 56.2875 50.9394 56.15 50.7292L53.425 46.4885Z" fill="white" fill-opacity="0.38"/>
<path d="M55.1375 45.9444C55.3375 45.7219 55.2625 45.3757 54.9875 45.2397C53.475 44.4979 50.3499 44.3125 49.1124 44.263C48.8624 44.2506 48.6375 44.4485 48.6375 44.7081C48.6375 44.9553 48.8249 45.1655 49.0749 45.1655C50.875 45.2273 53.5 45.4993 54.575 46.0433C54.775 46.1422 55 46.1051 55.1375 45.9444Z" fill="white" fill-opacity="0.38"/>
<path d="M73.2875 54.3393C74.2 54.0178 74.5625 53.0659 74.5875 52.3488C74.6125 51.6317 74.3375 51.063 73.8625 50.8528C73.6 50.7415 73.1875 50.7045 72.675 51.0506C72.4375 51.2114 72.4125 51.5452 72.6125 51.743C72.7625 51.8913 73.0125 51.9161 73.2 51.7924C73.3625 51.6812 73.4625 51.6688 73.5 51.6812C73.5625 51.7059 73.6875 51.9284 73.675 52.3117C73.6625 52.7815 73.4375 53.3131 72.9875 53.4738C71.6375 53.9437 70.05 52.8186 69.525 52.2375C69.2375 51.9161 68.7875 51.2361 68.825 50.247C72.2 50.1728 74.3 49.6783 75.3875 48.6769C76.1375 47.9969 76.9625 47.0325 76.65 46.3278C76.5375 46.0558 76.225 45.7467 75.4125 45.7962C75.1625 45.8086 74.8125 45.7962 74.4125 45.7838C72.7 45.7097 70.1125 45.6108 68.7875 47.6507C68.3875 48.2565 68.15 48.8252 68.025 49.3568C68.0125 49.3568 68 49.3568 67.9875 49.3568C65.275 49.3568 60.0625 47.218 58.5625 46.5751C58.3375 46.4762 58.0625 46.5751 57.9625 46.81C57.8625 47.0449 57.9625 47.3169 58.2 47.4158C59.7375 48.0711 64.975 50.2346 67.9125 50.2717C67.8875 51.607 68.55 52.5095 68.85 52.8433C69.5 53.5728 70.875 54.5 72.3125 54.5C72.6125 54.5 72.95 54.4505 73.2875 54.3393ZM69.5625 48.1452C70.375 46.8842 71.9125 46.674 73.3 46.674C73.675 46.674 74.0375 46.6864 74.3625 46.6987C74.7875 46.7111 75.15 46.7358 75.4625 46.7111C75.625 46.6987 75.725 46.7111 75.775 46.7235C75.725 46.9089 75.4625 47.3663 74.75 48.0216C73.8625 48.8376 71.9625 49.2703 68.975 49.3445C69.0875 48.9736 69.275 48.578 69.5625 48.1452Z" fill="white" fill-opacity="0.38"/>
<path d="M39.9875 47.4033C39.9875 47.3292 39.975 47.2673 39.9625 47.2055C39.9375 47.0077 40.05 46.8223 40.2375 46.7481C41.7875 46.1175 44.2625 45.6601 45.25 45.4994C45.4875 45.4623 45.65 45.2397 45.6125 45.0048V44.9678C45.575 44.7205 45.35 44.5598 45.1 44.5969C44.1125 44.7576 41.725 45.2027 40.0625 45.8332C39.85 45.9197 39.6125 45.8208 39.5125 45.623C39.25 45.1285 38.9375 44.807 38.65 44.5845C38 44.09 37.175 43.9045 36.325 44.0652C35.475 44.226 34.925 44.8936 34.75 45.487C34.6125 45.9692 34.7125 46.4143 35.025 46.6863C35.2375 46.8841 35.625 47.0448 36.2625 46.9088C36.525 46.847 36.6875 46.575 36.5875 46.3277L36.575 46.2906C36.5 46.0928 36.275 45.9815 36.0625 46.0186C35.8 46.0681 35.675 46.031 35.65 46.0063C35.625 45.9815 35.6 45.8826 35.65 45.7219C35.7375 45.4005 36.0625 45.0296 36.5 44.9554C37.0875 44.8441 37.6625 44.9678 38.1 45.3016C38.3375 45.487 38.55 45.7219 38.7 46.0186C38.8125 46.2288 38.7375 46.4761 38.5375 46.5997C36.15 48.0339 34.7375 49.6782 34.3125 51.508C34.025 52.7196 33.9625 53.449 34.425 53.7828C34.5625 53.8817 34.7125 53.9312 34.875 53.9312C35.3 53.9312 35.8125 53.6468 36.4625 53.2883C38.05 52.4105 40.1875 49.8513 39.9875 47.4033ZM35.7375 52.6454C35.4125 52.8308 35.0125 52.5465 35.0875 52.1756C35.1125 52.0396 35.15 51.8912 35.1875 51.7305C35.5625 50.1356 36.8625 48.6644 39.0625 47.3539C39.0625 47.391 39.075 47.4281 39.075 47.4652C39.2375 49.5051 37.3625 51.7305 36 52.497C35.9125 52.5465 35.825 52.5959 35.7375 52.6454Z" fill="white" fill-opacity="0.38"/>
<path d="M59.325 48.9982C59.1125 48.8622 58.825 48.9116 58.6875 49.1218C57.825 50.4076 55.0875 54.537 54.2875 56.6635C53.0375 59.9892 52.25 63.0059 51.875 65.8618C51.4375 69.1504 50.9375 72.8842 51.325 76.2594C51.5625 78.3982 52.7875 79.3255 53.4875 79.684C54.0375 79.9684 54.6125 80.0797 55.0875 80.0797C55.475 80.0797 55.8125 80.0055 56.05 79.8818C56.6875 79.5357 57.275 78.7815 57.6125 78.2993C57.7625 78.0768 57.7 77.7801 57.475 77.6441C57.2625 77.5204 57 77.5823 56.8625 77.7801C56.55 78.2251 56.05 78.831 55.6125 79.0782C55.35 79.2266 54.625 79.2266 53.9125 78.868C53.25 78.5342 52.425 77.7801 52.2375 76.1481C51.875 72.8718 52.3625 69.1999 52.7875 65.9731C53.1625 63.1789 53.9375 60.2241 55.1625 56.9602C55.9125 54.9573 58.6125 50.8527 59.4625 49.604C59.5875 49.4185 59.525 49.1342 59.325 48.9982Z" fill="white" fill-opacity="0.38"/>
<path d="M58.025 75.2209C58.2875 75.2333 58.5 75.0231 58.5 74.7635C58.55 68.4952 56.4875 61.0154 55.9375 59.1362C55.8625 58.8889 55.6 58.7529 55.3625 58.8271C55.125 58.9013 54.9875 59.1485 55.0625 59.3835C55.6 61.2256 57.6375 68.6065 57.5875 74.7511C57.575 75.0107 57.775 75.2085 58.025 75.2209Z" fill="white" fill-opacity="0.38"/>
<path d="M54.0375 51.0752C54.1625 50.865 54.1 50.593 53.9 50.457C53.6875 50.321 53.4 50.3829 53.2625 50.593C52.075 52.4846 47.15 60.6692 46.9 66.9992C46.6375 73.7743 47.9125 75.3445 49.95 76.4819C50.175 76.6055 50.4625 76.519 50.5875 76.2964C50.7 76.0739 50.625 75.8143 50.4 75.6906C48.825 74.8376 47.5625 73.6754 47.825 67.0363C48.05 61.003 52.9 52.905 54.0375 51.0752Z" fill="white" fill-opacity="0.38"/>
<path d="M54.675 72.0312C54.425 72.0436 54.225 72.229 54.175 72.501V72.5629C54.15 73.0698 53.975 74.3679 53.4125 75.0603C53.275 75.221 53.275 75.4559 53.4 75.629C53.575 75.8639 53.9375 75.8762 54.125 75.6413C54.275 75.4559 54.4 75.2581 54.5 75.0479C54.65 74.7388 55.0875 74.7017 55.2875 74.9737C55.9625 75.9257 57.075 76.8653 58.2625 77.0137C58.375 77.026 58.5 77.0384 58.625 77.0384C59.5 77.0384 60.625 76.6057 61.575 74.8748C63.85 70.7331 62.75 66.1092 62.1625 63.6242C62.1375 63.5005 62.1 63.3769 62.075 63.2656C61.5875 61.1762 58.875 55.588 58.1 54.0178C57.9875 53.7953 57.7125 53.6964 57.4875 53.8077C57.2625 53.9189 57.1625 54.1909 57.275 54.4135C58.0375 55.9589 60.725 61.4977 61.175 63.4634C61.2 63.5747 61.225 63.6983 61.2625 63.822C61.825 66.1957 62.8625 70.5971 60.7625 74.4297C60.0875 75.6537 59.2875 76.2224 58.3875 76.0988C57.0375 75.9257 55.7375 74.269 55.5375 73.453C55.3 72.4763 55.15 72.0065 54.7 72.0065C54.6875 72.0312 54.675 72.0312 54.675 72.0312Z" fill="white" fill-opacity="0.38"/>
<path d="M46.6625 27.3623C46.6625 27.3747 46.6625 27.3747 46.6625 27.387C46.6625 27.3994 46.6752 27.4118 46.6752 27.4241L46.6625 27.3623Z" fill="white" fill-opacity="0.38"/>
<path d="M51.8125 51.4092C52.0125 51.2485 52.0375 50.9641 51.875 50.7663C45.55 43.1876 42.2625 37.179 42.3375 33.3834C42.375 31.6155 43.125 30.1319 44.5625 29.0068C45.25 28.4628 45.95 28.129 46.375 27.9559C46.6 27.8694 46.725 27.6221 46.6625 27.3872C46.5625 27.1399 46.275 27.0039 46.0125 27.1152C45.5375 27.313 44.775 27.6715 44.0125 28.2773C42.35 29.5755 41.45 31.3311 41.4125 33.3711C41.3375 37.4386 44.6125 43.4843 51.1625 51.3474C51.325 51.5328 51.625 51.5699 51.8125 51.4092Z" fill="white" fill-opacity="0.38"/>
<path d="M46.6375 16.4579C46.775 16.5445 46.925 16.5816 47.075 16.5816C47.3125 16.5816 47.525 16.495 47.625 16.4456C47.8875 16.3343 48.425 16.3467 48.775 16.359C48.9875 16.3714 49.1625 16.3714 49.3 16.359C50 17.7437 50.4375 18.8193 50.475 19.351C50.5625 20.34 50.7375 23.6781 49.05 25.2606C48.025 26.225 47.1 27.6468 46.5375 29.1551C45.875 30.9354 45.7 32.7652 46.0625 34.4219C46.7375 37.6116 48.5125 41.4937 50.1875 43.5584C50.35 43.7562 50.6625 43.7809 50.85 43.6079C51.0375 43.4471 51.05 43.1751 50.9 42.9773C49.3 41.0239 47.6125 37.3025 46.9625 34.2241C46.2875 31.0714 47.825 27.6591 49.6875 25.9035C51.6625 24.049 51.5 20.34 51.4 19.252C51.275 17.9168 49.575 14.8507 48.85 13.602C48.65 13.2435 48.675 12.7737 48.9375 12.1926C49.7625 10.3999 52.4875 8.35993 54.675 7.90249C56.775 7.76649 58.6625 8.82974 59.7375 10.7708C60.425 12.0195 59.7 14.0224 59.1625 15.4936C59 15.9387 58.8625 16.3096 58.775 16.631C58.5875 17.311 58.725 17.9292 59.15 18.3866C59.6375 18.9059 60.45 19.1531 61.225 19.0171C61.5625 18.9553 61.825 18.7699 61.975 18.4855C62.2125 18.0157 62.0875 17.3852 61.9375 16.9401C61.85 16.6805 61.55 16.5445 61.3 16.6681C61.0875 16.767 60.9875 17.0019 61.0625 17.2245C61.175 17.5706 61.2375 17.9292 61.1625 18.0775C61.1625 18.1023 61.15 18.1146 61.075 18.127C60.6125 18.2135 60.1 18.0652 59.8375 17.7808C59.625 17.5583 59.575 17.2492 59.675 16.8783C59.75 16.5939 59.8875 16.2354 60.0375 15.815C60.625 14.1831 61.45 11.9453 60.55 10.3504C59.2875 8.08794 57.0625 6.83924 54.5875 7.02469L54.525 7.03706C52.05 7.53159 49.05 9.78172 48.1 11.8464C47.8625 12.3657 47.7625 12.8478 47.8 13.2929L47.625 13.3918L47.575 13.4289C47.55 13.4536 47.5125 13.4907 47.475 13.5278C46.875 14.0965 46.25 14.7642 46.25 15.3823C46.25 15.679 46.25 16.1983 46.6375 16.4579ZM48.1125 14.1831C48.1125 14.1831 48.125 14.1831 48.1125 14.1831C48.375 14.6158 48.6125 15.0485 48.825 15.4565C48.8125 15.4565 48.8125 15.4565 48.8 15.4565C48.3125 15.4441 47.7125 15.4194 47.25 15.6172C47.2125 15.6296 47.1875 15.6419 47.1625 15.6543C47.15 15.6049 47.15 15.5183 47.15 15.407C47.1625 15.2834 47.2875 14.9743 48.1125 14.1831Z" fill="white" fill-opacity="0.38"/>
<path d="M53.2875 53.8571C53.05 53.9437 52.925 54.2157 53.025 54.4506L53.4375 55.5138C53.525 55.7487 53.8 55.8724 54.0375 55.7735C54.275 55.6869 54.4 55.4149 54.3 55.18L53.8875 54.1168C53.7875 53.8942 53.525 53.7706 53.2875 53.8571Z" fill="white" fill-opacity="0.38"/>
<path d="M10.5875 94.1741C10.4625 93.9021 10.325 93.6177 10.175 93.3457C10.025 93.0737 9.8875 92.7894 9.7625 92.505C9.6375 92.2206 9.525 91.9363 9.4375 91.6396C9.35 91.3552 9.3125 91.0585 9.3125 90.7494C9.3125 90.4403 9.3625 90.1683 9.45 89.9211C9.5375 89.6738 9.675 89.4636 9.85 89.2782C10.025 89.1051 10.225 88.9691 10.475 88.8702C10.725 88.7713 10.9875 88.7218 11.2875 88.7218C11.5375 88.7218 11.7625 88.7589 11.9625 88.8207C12.1625 88.8949 12.3375 88.9938 12.475 89.1174C12.6125 89.2534 12.725 89.4018 12.8 89.5872C12.875 89.7727 12.9125 89.9705 12.9125 90.2054C12.9125 90.428 12.875 90.6381 12.8 90.8483C12.725 91.0585 12.6 91.281 12.4375 91.5283L12.65 91.6272C12.9 91.3799 13.0875 91.1327 13.2125 90.8854C13.3375 90.6381 13.3875 90.3909 13.3875 90.1065C13.3875 89.8592 13.3375 89.6367 13.2375 89.4389C13.1375 89.2411 13 89.068 12.825 88.932C12.65 88.796 12.425 88.6847 12.1625 88.6105C11.9 88.5364 11.6125 88.4993 11.3 88.4993C10.8625 88.4993 10.45 88.5734 10.1 88.7094C9.7375 88.8454 9.4375 89.0433 9.175 89.2782C8.925 89.5254 8.725 89.8098 8.5875 90.1436C8.45 90.4774 8.375 90.8483 8.375 91.2439C8.375 91.553 8.4125 91.8374 8.4875 92.1094C8.5625 92.369 8.6625 92.6286 8.7875 92.8759C8.9 93.1232 9.0375 93.3581 9.175 93.593C9.3125 93.8279 9.4375 94.0628 9.5625 94.3224C9.675 94.5697 9.775 94.8293 9.8625 95.1013C9.9375 95.3733 9.975 95.67 9.975 96.0038C9.975 96.4365 9.9 96.8074 9.7625 97.1413C9.6125 97.4627 9.425 97.7347 9.175 97.9572C8.925 98.1798 8.6375 98.3405 8.3 98.4518C7.975 98.5507 7.625 98.6125 7.25 98.6125C6.825 98.6125 6.45 98.5383 6.15 98.4023C5.8375 98.2663 5.5875 98.0932 5.375 97.8707C5.175 97.6482 5.025 97.4133 4.925 97.1413C4.825 96.8693 4.775 96.6096 4.775 96.35C4.775 96.0904 4.8125 95.9049 4.8875 95.7813C4.9625 95.6576 5.05 95.5711 5.1625 95.5217C5.2125 95.4969 5.2875 95.4722 5.35 95.4475C5.425 95.4227 5.4875 95.3857 5.55 95.3486C5.6125 95.3115 5.6625 95.262 5.7125 95.2002C5.7625 95.1384 5.775 95.0766 5.775 94.9777C5.775 94.8664 5.7375 94.7799 5.675 94.718C5.6125 94.6562 5.5125 94.6191 5.4 94.6191C5.2625 94.6191 5.15 94.6686 5.0375 94.7551C4.925 94.8417 4.825 94.9653 4.7375 95.1137C4.65 95.262 4.5875 95.4351 4.5375 95.6329C4.525 95.8431 4.5 96.0533 4.5 96.2635C4.5 96.6096 4.5625 96.9311 4.6875 97.2525C4.8125 97.574 4.9875 97.846 5.2375 98.0932C5.475 98.3405 5.775 98.5383 6.1375 98.6867C6.5 98.835 6.9125 98.9092 7.3875 98.9092C7.7 98.9092 8 98.8721 8.3125 98.8103C8.6125 98.7485 8.9 98.6496 9.175 98.5136C9.45 98.3899 9.7 98.2292 9.925 98.0561C10.15 97.8707 10.35 97.6729 10.525 97.4503C10.6875 97.2278 10.825 96.9805 10.9125 96.7085C11 96.4365 11.05 96.1645 11.05 95.8678C11.05 95.5711 11.0125 95.2868 10.925 95.0024C10.825 94.7304 10.7125 94.446 10.5875 94.1741Z" fill="white" fill-opacity="0.38"/>
<path d="M19.5625 91.6025C19.4375 91.4294 19.2875 91.3057 19.1 91.2068C18.9125 91.1079 18.6875 91.0585 18.425 91.0585C17.8625 91.0585 17.3125 91.281 16.775 91.7261C16.2375 92.1712 15.7 92.8512 15.15 93.7537L16.175 90.9719H15.2375L11.175 102H12.125L13.8 97.4256C13.8 97.6605 13.8375 97.8707 13.8875 98.0438C13.9375 98.2169 14.0125 98.3529 14.1125 98.4641C14.2125 98.5754 14.3375 98.6496 14.4875 98.699C14.6375 98.7485 14.825 98.7732 15.05 98.7732C15.45 98.7732 15.875 98.6867 16.3125 98.5259C16.75 98.3652 17.175 98.118 17.5875 97.7965C18 97.4751 18.375 97.0671 18.725 96.5725C19.075 96.078 19.35 95.5093 19.575 94.854C19.6875 94.5202 19.775 94.1864 19.825 93.8526C19.8875 93.5188 19.9125 93.2097 19.9125 92.9253C19.9125 92.6657 19.8875 92.4184 19.825 92.1835C19.7625 91.9734 19.675 91.7755 19.5625 91.6025ZM18.9875 92.9253C18.9625 93.1108 18.925 93.321 18.875 93.5311C18.825 93.7537 18.7625 93.9762 18.6875 94.2111C18.6125 94.446 18.5375 94.6809 18.4375 94.9282C18.1625 95.6329 17.8625 96.214 17.55 96.6838C17.225 97.1412 16.9125 97.5121 16.5875 97.7841C16.275 98.0561 15.9625 98.2539 15.675 98.3652C15.3875 98.4765 15.1375 98.5383 14.9375 98.5383C14.775 98.5383 14.65 98.5136 14.5375 98.4641C14.425 98.4147 14.325 98.3405 14.2625 98.2416C14.1875 98.1427 14.1375 98.0314 14.1 97.9078C14.0625 97.7841 14.05 97.6358 14.05 97.4998C14.05 97.2896 14.0875 97.03 14.15 96.7456C14.225 96.4489 14.3125 96.1522 14.4375 95.8184C14.5625 95.4969 14.7125 95.1507 14.8875 94.8046C15.0625 94.4584 15.25 94.1246 15.45 93.7908C15.65 93.457 15.875 93.1479 16.1 92.8635C16.325 92.5668 16.5625 92.3195 16.8 92.097C17.0375 91.8745 17.275 91.7014 17.525 91.5777C17.7625 91.4541 18 91.3799 18.225 91.3799C18.5 91.3799 18.7125 91.4788 18.85 91.6643C18.9875 91.8497 19.05 92.1094 19.05 92.4308C19.025 92.5668 19.0125 92.7399 18.9875 92.9253Z" fill="white" fill-opacity="0.38"/>
<path d="M30.8875 95.4969C30.6125 96.0038 30.3375 96.4366 30.075 96.8075C29.8125 97.1784 29.55 97.4874 29.2875 97.7347C29.025 97.982 28.7625 98.1674 28.4875 98.2787C28.225 98.4023 27.9375 98.4641 27.6625 98.4641C27.3375 98.4641 27.0875 98.3776 26.9375 98.2045C26.7875 98.0314 26.7 97.7965 26.7 97.5122C26.7 97.3762 26.7125 97.2402 26.7375 97.0918C26.7625 96.9435 26.8 96.7827 26.85 96.6096C26.9 96.4489 26.95 96.2758 27.0125 96.1027C27.075 95.9297 27.1375 95.7689 27.1875 95.5959L28.8125 91.1698H27.875L27.3625 92.5668C27.3625 92.3443 27.3375 92.1341 27.3 91.9487C27.2625 91.7632 27.1875 91.6025 27.0875 91.4665C26.9875 91.3305 26.8625 91.2316 26.7 91.1574C26.5375 91.0832 26.3375 91.0461 26.0875 91.0461C25.85 91.0461 25.6 91.0832 25.3375 91.145C25.075 91.2069 24.8 91.3181 24.525 91.4541C24.25 91.5901 23.975 91.7632 23.7 91.9734C23.425 92.1836 23.1625 92.4308 22.9125 92.7275C22.6625 93.0243 22.4375 93.3457 22.225 93.7166C22.0125 94.0875 21.825 94.5079 21.675 94.953C21.5625 95.2868 21.475 95.6082 21.425 95.9297C21.3625 96.2511 21.3375 96.5726 21.3375 96.8569C21.3375 97.1289 21.3625 97.3885 21.425 97.6111C21.475 97.846 21.5625 98.0438 21.6875 98.2169C21.8125 98.39 21.9625 98.526 22.15 98.6125C22.3375 98.7114 22.5625 98.7485 22.825 98.7485C23.3875 98.7485 23.9375 98.5136 24.4875 98.0562C25.0375 97.5987 25.5875 96.9064 26.1375 95.9791C26.075 96.1893 26.0375 96.3871 26 96.5725C25.975 96.7704 25.95 96.9434 25.95 97.1042C25.95 97.3514 25.9875 97.574 26.05 97.7842C26.1125 97.982 26.225 98.1551 26.35 98.3034C26.4875 98.4518 26.65 98.5631 26.85 98.6372C27.05 98.7114 27.275 98.7485 27.5375 98.7485C27.875 98.7485 28.1875 98.6867 28.475 98.563C28.775 98.4394 29.0625 98.2416 29.3375 97.982C29.6125 97.7223 29.9 97.3885 30.1875 96.9929C30.475 96.5973 30.7625 96.1275 31.075 95.5711L31.4125 94.99L31.2375 94.8664L30.8875 95.4969ZM26.3 95.1879C26.1375 95.5217 25.95 95.8555 25.75 96.1646C25.55 96.486 25.3375 96.7827 25.125 97.0671C24.9 97.3514 24.675 97.5863 24.4375 97.7965C24.2 98.0067 23.9625 98.1674 23.725 98.2911C23.4875 98.4147 23.25 98.4765 23.025 98.4765C22.7375 98.4765 22.525 98.3776 22.4 98.1922C22.2625 98.0067 22.2 97.7471 22.2 97.4133C22.2 97.1165 22.25 96.758 22.35 96.3253C22.45 95.8926 22.6 95.4228 22.8 94.9159C23.0375 94.3101 23.3125 93.7784 23.6 93.321C23.8875 92.8635 24.1875 92.4927 24.4875 92.1959C24.7875 91.8992 25.0875 91.6767 25.375 91.5283C25.6625 91.38 25.9375 91.3058 26.175 91.3058C26.3 91.3058 26.4125 91.3305 26.525 91.3676C26.6375 91.4047 26.7375 91.4665 26.825 91.5654C26.9125 91.6519 26.9875 91.7756 27.0375 91.9239C27.0875 92.0723 27.1125 92.2454 27.1125 92.4679C27.1125 92.7028 27.075 92.9748 27.0125 93.2715C26.95 93.5683 26.85 93.8773 26.7375 94.2112C26.6125 94.5202 26.4625 94.854 26.3 95.1879Z" fill="white" fill-opacity="0.38"/>
<path d="M44.925 89.5747C44.9875 89.5747 45.05 89.5871 45.1 89.5871C45.1625 89.5871 45.225 89.5871 45.275 89.5871C45.65 89.5871 45.9875 89.5624 46.3125 89.5129C46.6375 89.4635 46.9125 89.3893 47.1375 89.3027C47.375 89.2162 47.55 89.1049 47.6875 88.9937C47.825 88.87 47.8875 88.7464 47.8875 88.6104C47.8875 88.5239 47.85 88.4497 47.7875 88.4249C47.725 88.3879 47.6 88.3755 47.4125 88.3755C47.05 88.3755 46.7 88.4249 46.3375 88.5362C45.975 88.6475 45.625 88.7958 45.275 88.9937C44.875 88.9813 44.4875 88.9442 44.1125 88.8947C43.7375 88.8453 43.3625 88.7958 43 88.734C42.6375 88.6722 42.2625 88.6228 41.9 88.5733C41.5375 88.5239 41.15 88.4991 40.775 88.4991C39.825 88.4991 39.0875 88.6598 38.5875 88.9689C38.0875 89.2904 37.825 89.7355 37.825 90.3289C37.825 90.5514 37.8625 90.7493 37.9375 90.9347C38.0125 91.1078 38.1125 91.2562 38.25 91.3798C38.3875 91.5034 38.55 91.59 38.75 91.6641C38.95 91.726 39.1625 91.763 39.4125 91.763C39.7125 91.763 40.0125 91.7136 40.3375 91.627C40.6625 91.5405 40.9625 91.4169 41.25 91.2562L41.125 91.1078C41 91.1696 40.875 91.2314 40.7375 91.2932C40.6 91.3427 40.45 91.3922 40.3125 91.4416C40.1625 91.4787 40.0125 91.5158 39.8625 91.5281C39.7125 91.5529 39.575 91.5652 39.4375 91.5652C39.2375 91.5652 39.05 91.5405 38.8875 91.4911C38.725 91.4416 38.5875 91.3674 38.4625 91.2685C38.3375 91.1696 38.25 91.046 38.1875 90.8976C38.125 90.7493 38.0875 90.5638 38.0875 90.366C38.0875 90.1558 38.125 89.9704 38.2 89.8096C38.275 89.6366 38.3875 89.5006 38.55 89.3769C38.7125 89.2533 38.925 89.1667 39.1875 89.0926C39.45 89.0307 39.7625 88.9937 40.15 88.9937C40.4875 88.9937 40.825 89.0184 41.175 89.0678C41.525 89.1173 41.875 89.1667 42.2375 89.2286C42.6 89.2904 42.9625 89.3522 43.325 89.4264C43.6875 89.4882 44.0625 89.5376 44.4375 89.5747C44.2 89.7725 43.975 89.9951 43.7625 90.2424C43.5625 90.4773 43.3875 90.7369 43.2375 90.9965C43.2 91.0707 43.15 91.1449 43.1125 91.2191C43.075 91.2932 43.025 91.3921 42.9875 91.5034C42.9375 91.6147 42.875 91.7507 42.8125 91.9238C42.75 92.0845 42.6625 92.2947 42.5625 92.5419C42.4625 92.7892 42.3375 93.0859 42.2 93.4321C42.0625 93.7783 41.9 94.1863 41.7125 94.6684C41.4875 95.2372 41.275 95.7193 41.0875 96.1397C40.9 96.56 40.7125 96.9186 40.5375 97.2153C40.3625 97.512 40.1875 97.7593 40.0125 97.9571C39.8375 98.1549 39.6625 98.3033 39.475 98.4145C39.2875 98.5258 39.0875 98.6 38.8625 98.6494C38.65 98.6865 38.4125 98.7113 38.15 98.7113C37.5125 98.7113 37.0375 98.5753 36.725 98.3156C36.4125 98.056 36.25 97.6604 36.25 97.1411C36.25 96.9309 36.275 96.7702 36.3375 96.6713C36.4 96.5724 36.4875 96.4982 36.6125 96.4364C36.7375 96.3869 36.8375 96.3375 36.925 96.3004C37 96.2633 37.075 96.2262 37.1125 96.1891C37.1625 96.152 37.1875 96.115 37.2125 96.0779C37.2375 96.0408 37.2375 95.9913 37.2375 95.9295C37.2375 95.8059 37.2125 95.7193 37.15 95.6451C37.0875 95.5833 37 95.5462 36.8875 95.5462C36.7625 95.5462 36.6375 95.5833 36.525 95.6699C36.4125 95.7564 36.3125 95.8677 36.225 96.016C36.1375 96.1644 36.075 96.3251 36.025 96.5106C35.975 96.696 35.95 96.9062 35.95 97.1164C35.95 97.7098 36.15 98.1549 36.5375 98.4764C36.925 98.7978 37.4875 98.9462 38.2125 98.9462C38.7625 98.9462 39.2625 98.8473 39.725 98.6494C40.175 98.4516 40.6125 98.1425 41 97.7098C41.4 97.2895 41.775 96.7455 42.125 96.0779C42.475 95.4102 42.825 94.619 43.1625 93.7041C43.3375 93.2219 43.4875 92.8016 43.625 92.4554C43.7625 92.0969 43.875 91.7878 43.9625 91.5281C44.0625 91.2685 44.1375 91.0583 44.2125 90.8852C44.275 90.7122 44.3375 90.5638 44.3875 90.4525C44.4375 90.3413 44.4875 90.2424 44.525 90.1682C44.5625 90.094 44.6 90.0322 44.6375 89.9704C44.675 89.9085 44.725 89.8467 44.775 89.7849C44.8125 89.686 44.875 89.6366 44.925 89.5747ZM46.575 88.6475C46.85 88.5733 47.125 88.5239 47.3875 88.5239C47.575 88.5239 47.675 88.5486 47.675 88.598C47.675 88.6351 47.625 88.6846 47.5125 88.7217C47.4 88.7588 47.2625 88.7958 47.0875 88.8329C46.9125 88.87 46.7 88.8948 46.475 88.9195C46.25 88.9442 46.0125 88.9566 45.775 88.9689C46.025 88.8329 46.3 88.734 46.575 88.6475Z" fill="white" fill-opacity="0.38"/>
<path d="M64.4625 95.4968C64.175 95.9914 63.9 96.4241 63.6375 96.8074C63.375 97.1783 63.1125 97.4873 62.85 97.7346C62.5875 97.9819 62.325 98.1673 62.0625 98.291C61.8 98.4146 61.525 98.4764 61.2375 98.4764C60.9125 98.4764 60.6625 98.3899 60.5125 98.2168C60.3625 98.0437 60.275 97.8088 60.275 97.5244C60.275 97.3884 60.2875 97.2524 60.3125 97.1041C60.3375 96.9557 60.375 96.795 60.425 96.6219C60.475 96.4612 60.525 96.2881 60.5875 96.115C60.65 95.9419 60.7125 95.7812 60.7625 95.6081L62.3875 91.182H61.4375L60.05 94.9529L59.7375 95.5092C59.4625 96.0161 59.1875 96.4488 58.925 96.8197C58.6625 97.1906 58.4 97.4997 58.1375 97.747C57.875 97.9942 57.6125 98.1797 57.3375 98.3033C57.075 98.427 56.7875 98.4888 56.5125 98.4888C56.1875 98.4888 55.95 98.4022 55.7875 98.2291C55.625 98.0561 55.55 97.8212 55.55 97.5368C55.55 97.4008 55.5625 97.2648 55.5875 97.1164C55.6125 96.9681 55.65 96.8074 55.7 96.6343C55.75 96.4736 55.8 96.3005 55.8625 96.1274C55.925 95.9543 55.9875 95.7936 56.0375 95.6205L57.6625 91.1944H56.7125L55.325 94.9529L55 95.5092C54.7125 96.0037 54.4375 96.4365 54.175 96.8197C53.9125 97.1906 53.65 97.4997 53.3875 97.747C53.125 97.9942 52.8625 98.1797 52.6 98.3033C52.3375 98.427 52.0625 98.4888 51.775 98.4888C51.45 98.4888 51.2 98.4022 51.05 98.2291C50.9 98.0561 50.8125 97.8212 50.8125 97.5368C50.8125 97.3637 50.85 97.1535 50.9125 96.9063C50.9875 96.659 51.075 96.3994 51.175 96.1026C51.2875 95.8183 51.4 95.5216 51.525 95.2125C51.65 94.9034 51.7625 94.6067 51.875 94.3223C51.9875 94.0256 52.075 93.7536 52.1375 93.5063C52.2125 93.2467 52.2375 93.0242 52.2375 92.8387C52.2375 92.5791 52.2 92.3318 52.1375 92.1216C52.075 91.9115 51.9625 91.726 51.8375 91.5653C51.7 91.4169 51.5375 91.2933 51.3375 91.2068C51.1375 91.1202 50.9125 91.0831 50.65 91.0831C50.3375 91.0831 50.05 91.1449 49.775 91.2562C49.5 91.3675 49.2375 91.5529 48.975 91.7755C48.7125 92.0104 48.45 92.3071 48.1875 92.6656C47.925 93.0242 47.65 93.4445 47.3625 93.9143L49.5875 87.8687H48.6375L44.6625 98.6866H45.6125L46.95 95.0641C47.3125 94.4089 47.65 93.8402 47.9625 93.3827C48.275 92.9253 48.5625 92.542 48.85 92.2453C49.1375 91.9486 49.4125 91.7384 49.675 91.6024C49.9375 91.4664 50.225 91.4046 50.5125 91.4046C50.8375 91.4046 51.0875 91.5035 51.2375 91.7013C51.3875 91.8991 51.475 92.1587 51.475 92.4802C51.475 92.6409 51.4375 92.8511 51.375 93.0984C51.3 93.3456 51.2125 93.6053 51.1125 93.902C51 94.1863 50.8875 94.4831 50.7625 94.7921C50.6375 95.1012 50.525 95.3979 50.4125 95.6947C50.3 95.9914 50.2125 96.2634 50.15 96.523C50.0875 96.7826 50.05 96.9928 50.05 97.1783C50.05 97.4255 50.0875 97.6481 50.15 97.8582C50.2125 98.0561 50.325 98.2292 50.45 98.3775C50.5875 98.5259 50.75 98.6371 50.95 98.7113C51.15 98.7855 51.375 98.8226 51.6375 98.8226C51.975 98.8226 52.2875 98.7608 52.575 98.6371C52.875 98.5135 53.1625 98.3157 53.4375 98.0561C53.725 97.7964 54 97.4626 54.2875 97.067C54.5 96.7703 54.725 96.4241 54.95 96.0408C54.9125 96.1768 54.875 96.3252 54.85 96.4612C54.8 96.7208 54.775 96.9681 54.775 97.1783C54.775 97.4255 54.8125 97.6481 54.875 97.8582C54.9375 98.0561 55.05 98.2292 55.175 98.3775C55.3125 98.5259 55.475 98.6371 55.675 98.7113C55.875 98.7855 56.1 98.8226 56.3625 98.8226C56.675 98.8226 56.9625 98.7731 57.25 98.6619C57.525 98.5506 57.8 98.3899 58.0625 98.155C58.325 97.9324 58.5875 97.6357 58.85 97.2895C59.1125 96.9434 59.3875 96.5354 59.675 96.0532C59.6125 96.251 59.575 96.4488 59.5375 96.6466C59.5125 96.8445 59.4875 97.0175 59.4875 97.1783C59.4875 97.4255 59.525 97.6481 59.5875 97.8582C59.65 98.0561 59.7625 98.2292 59.8875 98.3775C60.025 98.5259 60.1875 98.6371 60.3875 98.7113C60.5875 98.7855 60.8125 98.8226 61.075 98.8226C61.4125 98.8226 61.725 98.7608 62.0125 98.6371C62.3125 98.5135 62.6 98.3157 62.8875 98.0561C63.175 97.7964 63.45 97.4626 63.7375 97.067C64.025 96.6714 64.3125 96.2016 64.625 95.6452L64.95 95.0641L64.7875 94.9405L64.4625 95.4968Z" fill="white" fill-opacity="0.38"/>
<path d="M78.5125 89.5747C78.575 89.5747 78.6375 89.5871 78.6875 89.5871C78.75 89.5871 78.8125 89.5871 78.8625 89.5871C79.2375 89.5871 79.575 89.5624 79.9 89.5129C80.225 89.4635 80.5 89.3893 80.725 89.3027C80.9625 89.2162 81.1375 89.1049 81.275 88.9937C81.4125 88.87 81.475 88.7464 81.475 88.6104C81.475 88.5239 81.4375 88.4497 81.375 88.4249C81.3125 88.3879 81.1875 88.3755 81 88.3755C80.6375 88.3755 80.2875 88.4249 79.925 88.5362C79.5625 88.6475 79.2125 88.7958 78.8625 88.9937C78.4625 88.9813 78.075 88.9442 77.7 88.8947C77.325 88.8453 76.95 88.7958 76.5875 88.734C76.225 88.6722 75.85 88.6228 75.4875 88.5733C75.125 88.5239 74.7375 88.4991 74.3625 88.4991C73.4125 88.4991 72.675 88.6598 72.175 88.9689C71.675 89.2904 71.4125 89.7355 71.4125 90.3289C71.4125 90.5514 71.45 90.7493 71.525 90.9347C71.6 91.1078 71.7 91.2562 71.8375 91.3798C71.975 91.5034 72.1375 91.59 72.3375 91.6641C72.5375 91.726 72.75 91.763 73 91.763C73.3 91.763 73.6 91.7136 73.925 91.627C74.25 91.5405 74.55 91.4169 74.8375 91.2562L74.7125 91.1078C74.5875 91.1696 74.4625 91.2314 74.325 91.2932C74.1875 91.3427 74.0375 91.3922 73.8875 91.4416C73.7375 91.4787 73.5875 91.5158 73.4375 91.5281C73.2875 91.5529 73.15 91.5652 73.0125 91.5652C72.8125 91.5652 72.625 91.5405 72.4625 91.4911C72.3 91.4416 72.1625 91.3674 72.0375 91.2685C71.9125 91.1696 71.825 91.046 71.7625 90.8976C71.7 90.7493 71.6625 90.5638 71.6625 90.366C71.6625 90.1558 71.7 89.9704 71.775 89.8096C71.85 89.6366 71.9625 89.5006 72.125 89.3769C72.2875 89.2533 72.5 89.1667 72.7625 89.0926C73.025 89.0307 73.3375 88.9937 73.725 88.9937C74.0625 88.9937 74.4 89.0184 74.75 89.0678C75.1 89.1173 75.45 89.1667 75.8125 89.2286C76.175 89.2904 76.5375 89.3522 76.9 89.4264C77.2625 89.4882 77.6375 89.5376 78.0125 89.5747C77.775 89.7725 77.55 89.9951 77.3375 90.2424C77.1375 90.4773 76.9625 90.7369 76.8125 90.9965C76.775 91.0707 76.725 91.1449 76.6875 91.2191C76.65 91.2932 76.6 91.3921 76.5625 91.5034C76.5125 91.6147 76.45 91.7507 76.3875 91.9238C76.325 92.0845 76.2375 92.2947 76.1375 92.5419C76.0375 92.7892 75.9125 93.0859 75.775 93.4321C75.6375 93.7783 75.475 94.1863 75.2875 94.6684C75.0625 95.2372 74.85 95.7193 74.6625 96.1397C74.475 96.56 74.2875 96.9186 74.1125 97.2153C73.9375 97.512 73.7625 97.7593 73.5875 97.9571C73.4125 98.1549 73.2375 98.3033 73.05 98.4145C72.8625 98.5258 72.6625 98.6 72.4375 98.6494C72.225 98.6865 71.9875 98.7113 71.725 98.7113C71.0875 98.7113 70.6125 98.5753 70.3 98.3156C69.9875 98.056 69.825 97.6604 69.825 97.1411C69.825 96.9309 69.85 96.7702 69.9125 96.6713C69.975 96.5724 70.0625 96.4982 70.1875 96.4364C70.3125 96.3869 70.4125 96.3375 70.5 96.3004C70.575 96.2633 70.65 96.2262 70.6875 96.1891C70.7375 96.152 70.7625 96.115 70.7875 96.0779C70.8125 96.0408 70.8125 95.9913 70.8125 95.9295C70.8125 95.8059 70.7875 95.7193 70.725 95.6451C70.6625 95.5833 70.575 95.5462 70.4625 95.5462C70.3375 95.5462 70.2125 95.5833 70.1 95.6699C69.9875 95.7564 69.8875 95.8677 69.8 96.016C69.7125 96.1644 69.65 96.3251 69.6 96.5106C69.55 96.696 69.525 96.9062 69.525 97.1164C69.525 97.7098 69.725 98.1549 70.1125 98.4764C70.5 98.7978 71.0625 98.9462 71.7875 98.9462C72.3375 98.9462 72.8375 98.8473 73.3 98.6494C73.75 98.4516 74.1875 98.1425 74.575 97.7098C74.975 97.2895 75.35 96.7455 75.7 96.0779C76.05 95.4102 76.4 94.619 76.7375 93.7041C76.9125 93.2219 77.0625 92.8016 77.2 92.4554C77.3375 92.0969 77.45 91.7878 77.5375 91.5281C77.6375 91.2685 77.7125 91.0583 77.7875 90.8852C77.85 90.7122 77.9125 90.5638 77.9625 90.4525C78.0125 90.3413 78.0625 90.2424 78.1 90.1682C78.1375 90.094 78.175 90.0322 78.2125 89.9704C78.25 89.9085 78.3 89.8467 78.35 89.7849C78.4 89.686 78.45 89.6366 78.5125 89.5747ZM80.15 88.6475C80.425 88.5733 80.7 88.5239 80.9625 88.5239C81.15 88.5239 81.25 88.5486 81.25 88.598C81.25 88.6351 81.2 88.6846 81.0875 88.7217C80.975 88.7588 80.8375 88.7958 80.6625 88.8329C80.4875 88.87 80.275 88.8948 80.05 88.9195C79.825 88.9442 79.5875 88.9566 79.35 88.9689C79.6125 88.8329 79.875 88.734 80.15 88.6475Z" fill="white" fill-opacity="0.38"/>
<path d="M104.4 92.4184C104.337 92.1588 104.225 91.9239 104.075 91.7137C103.925 91.5159 103.725 91.3552 103.488 91.2316C103.238 91.1079 102.938 91.0461 102.588 91.0461C102.15 91.0461 101.7 91.145 101.263 91.3428C100.825 91.5406 100.425 91.8126 100.05 92.1712C99.675 92.5173 99.35 92.9377 99.0625 93.4199C98.775 93.902 98.5625 94.4213 98.4125 94.99C98.4125 95.0024 98.4125 95.0024 98.4125 95.0147L98.15 95.4969C97.875 96.0038 97.6 96.4365 97.3375 96.8074C97.075 97.1783 96.8125 97.4874 96.55 97.7347C96.2875 97.982 96.025 98.1674 95.75 98.2787C95.4875 98.4023 95.2 98.4641 94.925 98.4641C94.6 98.4641 94.35 98.3776 94.2 98.2045C94.05 98.0314 93.9625 97.7965 93.9625 97.5121C93.9625 97.3761 93.975 97.2402 94 97.0918C94.025 96.9434 94.0625 96.7827 94.1125 96.6096C94.1625 96.4489 94.2125 96.2758 94.275 96.1027C94.3375 95.9296 94.4 95.7689 94.45 95.5958L96.075 91.1697H95.125L94.6125 92.5668C94.6125 92.3443 94.5875 92.1341 94.55 91.9486C94.5125 91.7632 94.4375 91.6025 94.3375 91.4665C94.2375 91.3305 94.1125 91.2316 93.95 91.1574C93.7875 91.0832 93.5875 91.0461 93.3375 91.0461C93.1 91.0461 92.85 91.0832 92.5875 91.145C92.325 91.2068 92.05 91.3181 91.775 91.4541C91.5 91.5901 91.225 91.7632 90.95 91.9734C90.675 92.1835 90.4125 92.4308 90.1625 92.7275C89.9125 93.0242 89.6875 93.3457 89.475 93.7166C89.2625 94.0751 89.0875 94.4831 88.9375 94.9282L88.625 95.4846C88.3375 95.9791 88.0625 96.4118 87.8 96.7951C87.5375 97.166 87.275 97.4751 87.0125 97.7223C86.75 97.9696 86.4875 98.155 86.225 98.2787C85.9625 98.4023 85.6875 98.4641 85.4 98.4641C85.075 98.4641 84.825 98.3776 84.675 98.2045C84.525 98.0314 84.4375 97.7965 84.4375 97.5121C84.4375 97.3391 84.475 97.1289 84.5375 96.8816C84.6125 96.6343 84.7 96.3747 84.8 96.078C84.9125 95.7936 85.025 95.4969 85.15 95.1878C85.275 94.8788 85.3875 94.582 85.5 94.2977C85.6125 94.001 85.7 93.729 85.7625 93.4817C85.8375 93.2221 85.8625 92.9995 85.8625 92.8141C85.8625 92.5544 85.825 92.3072 85.7625 92.097C85.7 91.8868 85.5875 91.7014 85.4625 91.5406C85.325 91.3923 85.1625 91.2686 84.9625 91.1821C84.7625 91.0956 84.5375 91.0585 84.275 91.0585C83.9625 91.0585 83.675 91.1203 83.4 91.2316C83.125 91.3428 82.8625 91.5283 82.6 91.7508C82.3375 91.9857 82.075 92.2824 81.8125 92.641C81.55 92.9995 81.275 93.4199 80.9875 93.8897L83.2125 87.844H82.2625L78.25 98.6619H79.2L80.5375 95.0395C80.9 94.3842 81.2375 93.8155 81.55 93.3581C81.8625 92.9006 82.15 92.5173 82.4375 92.2206C82.725 91.9239 83 91.7137 83.2625 91.5777C83.525 91.4417 83.8125 91.3799 84.1 91.3799C84.425 91.3799 84.675 91.4788 84.825 91.6766C84.975 91.8744 85.0625 92.1341 85.0625 92.4555C85.0625 92.6163 85.025 92.8264 84.9625 93.0737C84.8875 93.321 84.8 93.5806 84.7 93.8773C84.5875 94.1617 84.475 94.4584 84.35 94.7675C84.225 95.0766 84.1125 95.3733 84 95.67C83.8875 95.9667 83.8 96.2387 83.7375 96.4983C83.675 96.758 83.6375 96.9682 83.6375 97.1536C83.6375 97.4009 83.675 97.6234 83.7375 97.8336C83.8 98.0314 83.9125 98.2045 84.0375 98.3529C84.175 98.5012 84.3375 98.6125 84.5375 98.6867C84.7375 98.7608 84.9625 98.7979 85.225 98.7979C85.5625 98.7979 85.875 98.7361 86.1625 98.6125C86.4625 98.4888 86.75 98.291 87.025 98.0314C87.3125 97.7718 87.5875 97.438 87.875 97.0423C88.1375 96.6838 88.4 96.2511 88.6875 95.7689C88.675 95.8307 88.6625 95.9049 88.65 95.9667C88.5875 96.2882 88.5625 96.6096 88.5625 96.894C88.5625 97.166 88.5875 97.4256 88.65 97.6481C88.7 97.883 88.7875 98.0809 88.9125 98.2539C89.0375 98.427 89.1875 98.563 89.375 98.6496C89.5625 98.7485 89.7875 98.7856 90.05 98.7856C90.6125 98.7856 91.1625 98.5507 91.7125 98.0932C92.2625 97.6358 92.8125 96.9434 93.3625 96.0162C93.3 96.2264 93.2625 96.4242 93.225 96.6096C93.2 96.8074 93.175 96.9805 93.175 97.1412C93.175 97.3885 93.2125 97.6111 93.275 97.8212C93.3375 98.019 93.45 98.1921 93.575 98.3405C93.7125 98.4888 93.875 98.6001 94.075 98.6743C94.275 98.7485 94.5 98.7856 94.7625 98.7856C95.1 98.7856 95.4125 98.7238 95.7 98.6001C96 98.4765 96.2875 98.2787 96.5625 98.019C96.8375 97.7594 97.125 97.4256 97.4125 97.03C97.6875 96.6467 97.975 96.1893 98.275 95.67C98.275 95.6824 98.275 95.6947 98.2625 95.7195C98.225 95.9667 98.2125 96.2016 98.2125 96.4242C98.2125 96.7951 98.2625 97.1165 98.35 97.4132C98.4375 97.71 98.5625 97.9572 98.7375 98.155C98.9 98.3529 99.1125 98.5136 99.35 98.6248C99.5875 98.7361 99.8625 98.7856 100.162 98.7856C100.562 98.7856 100.962 98.699 101.362 98.5136C101.762 98.3281 102.138 98.0685 102.5 97.7471C102.85 97.4132 103.175 97.03 103.462 96.5849C103.75 96.1398 103.987 95.6453 104.175 95.1136C104.275 94.8293 104.35 94.5202 104.413 94.2111C104.475 93.8897 104.5 93.5806 104.5 93.2591C104.5 92.9624 104.462 92.6904 104.4 92.4184ZM93.5375 95.1878C93.375 95.5216 93.1875 95.8555 92.9875 96.1645C92.7875 96.486 92.575 96.7827 92.3625 97.0671C92.1375 97.3514 91.9125 97.5863 91.675 97.7965C91.4375 98.0067 91.2 98.1674 90.9625 98.291C90.725 98.4147 90.4875 98.4765 90.2625 98.4765C89.975 98.4765 89.7625 98.3776 89.6375 98.1921C89.5 98.0067 89.4375 97.747 89.4375 97.4132C89.4375 97.1165 89.4875 96.758 89.5875 96.3253C89.6875 95.8925 89.8375 95.4227 90.0375 94.9158C90.275 94.31 90.55 93.7784 90.8375 93.321C91.125 92.8635 91.425 92.4926 91.725 92.1959C92.025 91.8992 92.325 91.6766 92.6125 91.5283C92.9 91.3799 93.175 91.3057 93.4125 91.3057C93.5375 91.3057 93.65 91.3305 93.7625 91.3676C93.875 91.4046 93.975 91.4665 94.0625 91.5654C94.15 91.6519 94.225 91.7755 94.275 91.9239C94.325 92.0723 94.35 92.2453 94.35 92.4679C94.35 92.7028 94.3125 92.9748 94.25 93.2715C94.1875 93.5682 94.0875 93.8773 93.975 94.2111C93.85 94.5202 93.7 94.854 93.5375 95.1878ZM103.975 93.3828C103.95 93.5806 103.912 93.766 103.875 93.9639C103.838 94.1493 103.787 94.3348 103.737 94.5078C103.687 94.6809 103.637 94.8417 103.587 94.9777C103.4 95.4969 103.187 95.9667 102.925 96.3871C102.675 96.8198 102.388 97.1907 102.1 97.4998C101.8 97.8089 101.5 98.0561 101.175 98.2292C100.862 98.4023 100.55 98.4889 100.237 98.4889C99.525 98.4889 99.175 97.9943 99.175 96.9929C99.175 96.6962 99.2 96.3747 99.2625 96.0162C99.325 95.6576 99.4 95.2991 99.5125 94.9406C99.675 94.4089 99.8625 93.9144 100.112 93.4693C100.35 93.0242 100.612 92.641 100.912 92.3319C101.2 92.0104 101.513 91.7632 101.838 91.5901C102.163 91.417 102.488 91.3305 102.825 91.3305C103.05 91.3305 103.25 91.3676 103.4 91.4541C103.55 91.5283 103.675 91.6395 103.775 91.7755C103.862 91.9115 103.938 92.0723 103.975 92.2577C104.013 92.4432 104.037 92.6286 104.037 92.8388C104.012 92.9995 104 93.185 103.975 93.3828Z" fill="white" fill-opacity="0.38"/>
</g>
<defs>
<clipPath id="clip0_138_6055">
<rect width="100" height="95" fill="white" transform="translate(4.5 7)"/>
</clipPath>
</defs>
</svg>
