<svg width="109" height="109" viewBox="0 0 109 109" fill="none" xmlns="http://www.w3.org/2000/svg">
<path d="M76.3305 68.624C75.3962 67.5403 73.5776 66.5562 75.5956 54.1866C77.3769 43.3119 74.0011 36.5478 73.1665 35.0779C73.0668 34.916 72.8551 34.8537 72.6931 34.9658C69.2426 37.1333 65.5429 37.1831 63.8613 37.0586C63.7118 37.0461 63.6993 36.8219 63.8488 36.797C67.0502 36.2489 72.0952 35.0779 74.0136 30.3444C75.8073 25.9222 74.0758 19.9928 73.4904 18.2613C73.3907 17.9499 73.3907 17.6136 73.5028 17.3021C73.8765 16.2931 74.6862 13.8392 74.6488 11.2731C74.599 8.2959 68.8564 10.1395 67.5609 10.5879C67.399 10.6502 67.2121 10.6378 67.0502 10.5755C53.4723 4.65852 46.7581 12.9174 45.4253 14.8357C45.2758 15.0599 45.0017 15.1596 44.7402 15.0973C41.6384 14.3499 38.4495 15.4212 38.4121 18.199C38.3747 20.5035 40.754 23.0945 41.7381 24.0662C41.9872 24.3153 42.1242 24.6641 42.0993 25.0129C41.8377 28.588 44.2045 31.9887 45.3879 33.4461C45.7118 33.8572 45.7491 34.4177 45.4751 34.8662C44.2419 36.8966 42.9962 42.5645 42.6225 44.3831C42.5477 44.7195 42.3111 45.006 41.9872 45.143C35.4598 47.8088 34.8993 56.2295 34.8619 58.2849C34.8619 58.5589 34.7 58.8081 34.4633 58.9451C33.6536 59.406 31.81 60.6641 31.1623 62.8316C30.3277 65.6344 33.1803 67.1666 35.7464 67.615C38.3125 68.0635 40.6294 67.5154 40.6792 66.033C40.7166 65.0115 42.1491 64.2143 43.0335 63.8032C43.3699 63.6537 43.4571 63.2178 43.208 62.9437L41.5637 61.1375C41.4391 61.0005 41.5636 60.7762 41.7505 60.8261C46.2225 61.9347 48.2529 67.7147 47.8294 70.1686C47.381 72.7347 49.9471 73.7188 50.4453 73.669C50.9436 73.6192 51.5789 73.6192 51.7284 73.9181C51.8779 74.2171 53.8959 74.1673 54.145 73.8683C54.3941 73.5693 54.7803 73.3202 55.3782 73.6192C55.9637 73.9181 56.6114 74.4538 58.4301 72.934C60.2488 71.4019 58.9284 66.2821 57.9817 65.7839C57.309 65.4351 56.0509 63.0309 55.3782 61.6731C55.3284 61.5735 55.4654 61.4863 55.5277 61.5735C56.3997 62.6821 58.1436 64.5631 60.0993 64.9368C62.3166 65.3603 64.7332 62.4205 65.6675 61.1624C65.7672 61.0378 65.9665 61.1375 65.9167 61.287C65.543 62.4455 64.5589 64.3887 64.0481 64.9368C63.4128 65.6219 63.7243 68.8981 65.5554 71.215C67.3741 73.532 73.2412 73.1334 75.3589 72.7472C77.4765 72.361 77.2772 69.7077 76.3305 68.624ZM56.4619 22.9077C55.0294 23.3312 53.6965 23.0696 53.4723 22.3347C53.2606 21.5997 54.2447 20.6655 55.6772 20.2419C57.1097 19.8184 58.4426 20.08 58.6668 20.8149C58.8786 21.5499 57.8945 22.4841 56.4619 22.9077ZM64.2599 19.1333C64.372 18.199 65.4433 17.5388 66.664 17.6758C67.8848 17.8129 68.7942 18.6848 68.6821 19.6316C68.57 20.5658 67.4986 21.226 66.2779 21.089C65.0571 20.952 64.1602 20.08 64.2599 19.1333ZM60.6225 28.2641C60.6101 28.2765 60.5851 28.2641 60.5976 28.2392C61.2329 27.3797 63.3754 24.5271 62.9644 23.5056C62.5408 22.4966 60.1616 21.089 61.4322 20.5534C62.7028 20.0177 65.3685 19.7686 64.3346 22.0855C63.8364 23.1942 63.5499 24.6018 65.1692 25.1873C65.7298 25.3866 66.0786 25.6731 66.3028 25.9596C66.4772 26.1963 66.1907 26.4952 65.954 26.3208C65.6675 26.1091 65.3187 25.9222 64.9201 25.8848C63.936 25.7852 63.2011 25.9347 62.653 26.3333C62.2294 26.6447 61.0585 27.8156 60.6225 28.2641Z" fill="white" fill-opacity="0.38"/>
<path d="M24.2114 87.2595C23.5262 86.6366 22.4425 86.3127 20.9477 86.3127C20.4868 86.3127 20.0134 86.3377 19.5276 86.3875C19.0418 86.4373 18.6307 86.5121 18.2819 86.6117C18.0951 86.674 17.9456 86.7487 17.8459 86.8484C17.7463 86.948 17.6965 87.0975 17.6965 87.2844V92.7031V93.3882V96.6394C17.6965 96.8636 17.7587 97.0256 17.8958 97.1377C18.0203 97.2373 18.2196 97.2996 18.4812 97.2996C18.6183 97.2996 18.7553 97.2872 18.8674 97.2498C18.9795 97.2249 19.0792 97.2 19.1539 97.175V93.3882H20.9352C21.9193 93.3882 22.729 93.2387 23.3643 92.9522C23.9996 92.6532 24.4729 92.2422 24.7844 91.7065C25.0958 91.1709 25.2453 90.5356 25.2453 89.8006C25.2453 88.7294 24.8965 87.8823 24.2114 87.2595ZM23.028 91.6069C22.5172 92.0055 21.7823 92.1923 20.848 92.1923H19.1414V87.6705C19.3906 87.6207 19.6646 87.5833 19.9761 87.5584C20.2875 87.5335 20.5989 87.5086 20.9228 87.5086C21.8446 87.5086 22.5671 87.6954 23.0653 88.0567C23.5636 88.4304 23.8127 89.0159 23.8127 89.8131C23.8003 90.6228 23.5512 91.2083 23.028 91.6069Z" fill="white" fill-opacity="0.38"/>
<path d="M32.4327 89.3144C31.8846 89.0155 31.2618 88.8535 30.5393 88.8535C29.9787 88.8535 29.4555 88.9532 28.9697 89.14C28.4839 89.3393 28.0728 89.6134 27.7241 89.9746C27.3753 90.3359 27.1137 90.7843 26.9144 91.3075C26.7151 91.8307 26.6279 92.4286 26.6279 93.0888C26.6279 94.0231 26.8023 94.8203 27.1635 95.4681C27.5247 96.1158 28.0355 96.6141 28.6957 96.938C29.3559 97.2618 30.1407 97.4362 31.05 97.4362C31.5608 97.4362 32.0341 97.3739 32.4452 97.2618C32.8562 97.1497 33.1926 96.9878 33.4417 96.8009C33.6909 96.6016 33.8154 96.4023 33.8154 96.1781C33.8154 96.0411 33.778 95.9165 33.7033 95.8044C33.6286 95.6923 33.5289 95.5926 33.3919 95.5179C33.1552 95.7047 32.8438 95.8791 32.4452 96.0411C32.0466 96.203 31.5981 96.2902 31.1123 96.2902C30.1905 96.2902 29.4556 96.0411 28.9199 95.5553C28.4964 95.1691 28.2223 94.6459 28.0853 93.9857L33.504 93.2259C33.7158 93.2009 33.8777 93.1387 34.0023 93.0265C34.1144 92.9144 34.1767 92.7276 34.1767 92.4784C34.1767 91.7809 34.0272 91.1456 33.7158 90.6099C33.4044 90.0369 32.9808 89.6134 32.4327 89.3144ZM28.0106 92.8646C28.0355 91.9677 28.2722 91.2701 28.7206 90.7719C29.194 90.2487 29.7919 89.9871 30.5268 89.9871C31.2244 89.9871 31.785 90.1989 32.1836 90.6099C32.5822 91.021 32.8064 91.5566 32.8563 92.2044L28.0106 92.8646Z" fill="white" fill-opacity="0.38"/>
<path d="M40.4424 95.929C40.2804 96.0286 40.0687 96.1034 39.832 96.1781C39.5829 96.2529 39.3586 96.2778 39.1593 96.2778C38.686 96.2778 38.3247 96.1781 38.0507 95.9913C37.7766 95.792 37.6521 95.4681 37.6521 94.9947V93.0888V92.5657V90.4231H40.1683C40.3303 90.4231 40.4673 90.3733 40.5545 90.2612C40.6541 90.1615 40.6915 90.012 40.6915 89.8252C40.6915 89.713 40.6791 89.6009 40.6417 89.4888C40.6043 89.3892 40.5669 89.302 40.542 89.2646H37.6521V87.2466C37.6521 87.0224 37.5898 86.8605 37.4652 86.7608C37.3406 86.6611 37.1538 86.6113 36.9171 86.6113C36.7801 86.6113 36.6431 86.6238 36.5185 86.6611C36.3939 86.6861 36.3067 86.711 36.2444 86.7359V92.5781V93.1013V95.0944C36.2444 95.9414 36.4936 96.5394 37.0043 96.9006C37.515 97.2619 38.1752 97.4487 38.9974 97.4487C39.533 97.4487 39.9565 97.3615 40.268 97.1996C40.5669 97.0376 40.7289 96.8259 40.7289 96.5643C40.7289 96.4272 40.704 96.3027 40.6417 96.1906C40.5794 96.0785 40.5171 95.9913 40.4424 95.929Z" fill="white" fill-opacity="0.38"/>
<path d="M51.0681 85.6898C50.6819 85.5154 50.1587 85.4282 49.4985 85.4282C48.8383 85.4282 48.2778 85.5279 47.8044 85.7396C47.3311 85.939 46.9698 86.2628 46.7082 86.6864C46.4591 87.1099 46.3345 87.6704 46.3345 88.368V89.7258V90.4981V96.6767C46.3345 96.9009 46.3968 97.0629 46.5338 97.1625C46.6584 97.2622 46.8452 97.312 47.0944 97.312C47.2314 97.312 47.3684 97.2995 47.4805 97.2622C47.5926 97.2372 47.6798 97.2123 47.7421 97.1874V90.6974H50.8189C50.9933 90.6974 51.1304 90.6476 51.2176 90.548C51.3172 90.4483 51.3546 90.2988 51.3546 90.112C51.3546 89.9874 51.3421 89.8628 51.3048 89.7632C51.2674 89.6635 51.23 89.5888 51.2051 89.539H47.7172V88.4303C47.7172 87.7826 47.8542 87.3216 48.1407 87.0227C48.4272 86.7237 48.9255 86.5867 49.6356 86.5867C49.9345 86.5867 50.2335 86.6241 50.5449 86.6988C50.8563 86.7736 51.1304 86.8732 51.3421 86.9853C51.4418 86.8857 51.5041 86.786 51.5664 86.6864C51.6162 86.5867 51.6411 86.4621 51.6411 86.3376C51.6411 86.076 51.4418 85.8642 51.0681 85.6898Z" fill="white" fill-opacity="0.38"/>
<path d="M58.181 89.5386C57.583 89.0777 56.7734 88.8535 55.7519 88.8535C55.2786 88.8535 54.8426 88.9033 54.419 88.9905C54.008 89.0777 53.6343 89.2023 53.3228 89.3642C52.9865 89.5262 52.8121 89.7629 52.8121 90.0618C52.8121 90.1739 52.8495 90.2985 52.9242 90.4106C52.999 90.5227 53.0862 90.6224 53.1734 90.6971C53.5097 90.5227 53.9083 90.3608 54.3443 90.2238C54.7803 90.0867 55.2412 90.012 55.727 90.012C56.3249 90.012 56.7983 90.149 57.1471 90.4106C57.4959 90.6847 57.6702 91.1082 57.6702 91.6937V92.1919L55.1665 92.4411C54.2571 92.5283 53.5595 92.7649 53.0488 93.176C52.5381 93.5746 52.2889 94.1601 52.2889 94.9324C52.2889 95.7546 52.5879 96.3774 53.1983 96.8134C53.7962 97.2494 54.6557 97.4611 55.7644 97.4611C56.3498 97.4611 56.873 97.3989 57.3464 97.2618C57.8197 97.1373 58.1934 96.9878 58.4675 96.8383C58.6668 96.7262 58.8163 96.5892 58.9159 96.4646C59.0156 96.3276 59.0654 96.1283 59.0654 95.8791V91.7061C59.0779 90.7096 58.7789 89.9995 58.181 89.5386ZM57.6827 95.8542C57.5457 95.9539 57.309 96.0411 56.9851 96.1407C56.6613 96.2404 56.2502 96.2902 55.7644 96.2902C55.0792 96.2902 54.5685 96.1657 54.2197 95.9165C53.8709 95.6674 53.6966 95.331 53.6966 94.8951C53.6966 94.4715 53.846 94.1477 54.1325 93.9234C54.4315 93.6992 54.8799 93.5622 55.4903 93.5248L57.6702 93.3006V95.8542H57.6827Z" fill="white" fill-opacity="0.38"/>
<path d="M71.8959 89.1525C71.435 88.9532 70.8869 88.8535 70.2516 88.8535C69.6163 88.8535 69.0558 88.9656 68.5575 89.1899C68.1589 89.3767 67.8226 89.576 67.5485 89.8127C67.3243 89.5262 67.0004 89.2895 66.5769 89.1276C66.116 88.9407 65.5928 88.8535 64.9949 88.8535C64.4966 88.8535 64.0108 88.9283 63.525 89.0777C63.0392 89.2272 62.6405 89.4016 62.3167 89.6009C62.0675 89.7504 61.8931 89.9124 61.7935 90.0743C61.6938 90.2362 61.644 90.4355 61.644 90.6722V92.6778V93.612V96.6764C61.644 96.9006 61.7063 97.0625 61.8433 97.1622C61.9679 97.2619 62.1547 97.3117 62.4039 97.3117C62.5409 97.3117 62.6779 97.2992 62.79 97.2618C62.9021 97.2369 62.9893 97.212 63.0516 97.1871V93.612V92.6778V90.5975C63.2883 90.448 63.5748 90.311 63.9111 90.1988C64.2475 90.0867 64.6087 90.0245 64.97 90.0245C65.5181 90.0245 65.9665 90.1615 66.3028 90.4231C66.6392 90.6971 66.8011 91.1206 66.8011 91.6937V92.6778V93.612V96.6764C66.8011 96.9006 66.8634 97.0625 66.9879 97.1622C67.1125 97.2619 67.2994 97.3117 67.5609 97.3117C67.6855 97.3117 67.8101 97.2992 67.9347 97.2618C68.0592 97.2369 68.1464 97.212 68.2087 97.1871V93.612V92.6778V91.5816C68.2087 91.3075 68.1838 91.0708 68.1215 90.8466C68.1215 90.8341 68.1215 90.8341 68.1215 90.8217C68.3831 90.5975 68.6571 90.4106 68.9686 90.2736C69.3547 90.0992 69.7409 90.0245 70.152 90.0245C70.7001 90.0245 71.1485 90.1615 71.4724 90.4231C71.7963 90.6971 71.9707 91.1206 71.9707 91.6937V92.6778V93.612V96.6764C71.9707 96.9006 72.0329 97.0625 72.1575 97.1622C72.2821 97.2619 72.4689 97.3117 72.7305 97.3117C72.8551 97.3117 72.9797 97.2992 73.1042 97.2618C73.2288 97.2369 73.316 97.212 73.3783 97.1871V93.612V92.6778V91.6189C73.3783 90.9961 73.2537 90.4854 72.9921 90.0743C72.7181 89.6508 72.3568 89.3518 71.8959 89.1525Z" fill="white" fill-opacity="0.38"/>
<path d="M76.7539 88.9912C76.6168 88.9912 76.4798 89.0037 76.3552 89.041C76.2307 89.066 76.1435 89.0909 76.0812 89.1158V92.5663V93.2514V96.6646C76.0812 96.8888 76.1435 97.0507 76.2805 97.1504C76.4051 97.2501 76.5919 97.2999 76.8411 97.2999C76.9781 97.2999 77.1151 97.2874 77.2272 97.2501C77.3393 97.2251 77.4265 97.2002 77.4888 97.1753V93.2514V92.5663V89.6514C77.4888 89.4147 77.4265 89.2528 77.302 89.1532C77.1898 89.041 77.003 88.9912 76.7539 88.9912Z" fill="white" fill-opacity="0.38"/>
<path d="M76.7913 85.6274C76.5297 85.6274 76.318 85.7146 76.1436 85.8766C75.9692 86.051 75.882 86.2503 75.882 86.4994C75.882 86.7485 75.9692 86.9479 76.1436 87.1222C76.318 87.2966 76.5422 87.3714 76.7913 87.3714C77.0654 87.3714 77.2772 87.2842 77.4391 87.1222C77.6011 86.9479 77.6882 86.7485 77.6882 86.4994C77.6882 86.2503 77.6011 86.051 77.4391 85.8766C77.2772 85.7146 77.0654 85.6274 76.7913 85.6274Z" fill="white" fill-opacity="0.38"/>
<path d="M81.0641 85.6897C80.9396 85.6897 80.815 85.7021 80.6904 85.7395C80.5659 85.7644 80.4787 85.7894 80.4164 85.8143V92.5658V93.2509V96.6641C80.4164 96.8883 80.4787 97.0503 80.6157 97.1499C80.7403 97.2496 80.9271 97.2994 81.1763 97.2994C81.3133 97.2994 81.4503 97.2869 81.5624 97.2496C81.6745 97.2247 81.7617 97.1998 81.824 97.1748V93.4503V92.7776V86.325C81.824 86.1008 81.7617 85.9388 81.6372 85.8392C81.525 85.7395 81.3257 85.6897 81.0641 85.6897Z" fill="white" fill-opacity="0.38"/>
<path d="M91.1043 89.0655C90.9797 88.9659 90.8053 88.916 90.606 88.916C90.4939 88.916 90.3818 88.9285 90.2821 88.9659C90.1825 88.9908 90.0953 89.0281 90.0081 89.0655C89.8462 89.788 89.6344 90.5728 89.3977 91.3824C89.1485 92.2046 88.8994 92.9894 88.6254 93.7243C88.3513 94.4593 88.1022 95.0821 87.8531 95.5679H87.7783C87.305 94.5216 86.8814 93.5126 86.4953 92.5409C86.1091 91.5693 85.7354 90.5852 85.3866 89.6011C85.2994 89.352 85.1998 89.1776 85.0752 89.078C84.9506 88.9783 84.7762 88.916 84.5769 88.916C84.4274 88.916 84.278 88.9534 84.1409 89.0157C84.0039 89.0904 83.8918 89.1776 83.8171 89.3022C84.0911 90.1243 84.3776 90.934 84.6766 91.7188C84.9756 92.516 85.262 93.2261 85.5485 93.8614C85.8351 94.4966 86.0718 95.0074 86.2711 95.3811C86.4828 95.7797 86.6697 96.0537 86.8441 96.2032C87.0185 96.3527 87.1929 96.4648 87.3922 96.5146C87.2053 96.9008 86.9562 97.3119 86.6572 97.7354C86.3583 98.1589 86.0468 98.5576 85.723 98.9313C85.3991 99.305 85.1126 99.5915 84.851 99.8157C84.8883 100.003 84.9755 100.164 85.125 100.314C85.2745 100.451 85.4738 100.526 85.7479 100.526C86.1216 100.526 86.5326 100.264 86.9811 99.7285C87.4295 99.1929 87.9153 98.433 88.4634 97.4364C88.7499 96.9382 89.024 96.3652 89.298 95.7423C89.5721 95.1195 89.8337 94.4717 90.0704 93.824C90.307 93.1762 90.5188 92.5534 90.7057 91.9804C90.8925 91.3949 91.0296 90.8842 91.1417 90.4482C91.2413 90.0122 91.3036 89.7008 91.3036 89.5015C91.2911 89.3146 91.2289 89.1652 91.1043 89.0655Z" fill="white" fill-opacity="0.38"/>
</svg>
