<svg width="109" height="109" viewBox="0 0 109 109" fill="none" xmlns="http://www.w3.org/2000/svg">
<path d="M57.7286 54.8468C57.7286 54.7222 57.7286 54.6101 57.7286 54.4731H57.7162C57.7162 46.3388 64.8913 39.8738 73.2747 41.0696C79.1792 41.9042 83.838 46.5631 84.6851 52.48C85.8809 60.851 79.4158 68.0385 71.2816 68.0385C65.6885 68.0385 60.8802 64.6503 58.8124 59.8046C58.638 59.4184 58.5383 59.6925 58.5134 59.7921C58.5134 59.8046 58.5134 59.8171 58.5009 59.8295C58.2393 60.8385 57.9155 61.8226 57.5044 62.7693C60.3196 67.4406 65.4394 70.5548 71.2816 70.5548C80.537 70.5548 87.9736 62.7195 87.301 53.3271C86.728 45.3921 80.3875 39.0267 72.4401 38.4661C63.0352 37.8059 55.2124 45.2302 55.2124 54.4855C55.2124 54.6101 55.2124 54.7347 55.2124 54.8592C55.013 64.3513 47.24 71.9998 37.7106 71.9998C28.0566 71.9998 20.1964 64.152 20.1964 54.4855C20.1964 44.8316 28.0441 36.9838 37.7106 36.9838C42.1203 36.9838 46.1438 38.6156 49.2331 41.3187C49.7314 41.7547 50.4788 41.7298 50.9397 41.2689C51.4504 40.7582 51.4255 39.9111 50.8899 39.4378C47.3646 36.3485 42.7556 34.48 37.7106 34.48C26.6739 34.48 17.6801 43.4613 17.6801 54.5104C17.6801 65.5596 26.6614 74.5409 37.7106 74.5409C46.4428 74.5409 53.8919 68.9229 56.62 61.1001C57.3051 59.1195 57.6913 57.0267 57.7286 54.8468Z" fill="white" fill-opacity="0.38"/>
<path d="M91.1376 51.7573C90.0165 43.4736 82.2933 35.7504 74.022 34.6417C61.7645 33.0099 51.251 42.5393 51.251 54.4978C51.251 54.6224 51.251 54.7345 51.251 54.8715C51.0517 62.1961 45.0725 68.0632 37.7105 68.0632C30.224 68.0632 24.17 61.9968 24.17 54.5227C24.17 47.0362 30.2365 40.9822 37.7105 40.9822C41.0365 40.9822 44.0759 42.1781 46.4303 44.1712C46.9285 44.5947 47.6759 44.5698 48.1368 44.0964C48.66 43.5732 48.6227 42.7262 48.0621 42.2403C45.2718 39.886 41.6593 38.4659 37.7105 38.4659C28.8413 38.4659 21.6413 45.6535 21.6413 54.5352C21.6413 63.4169 28.8413 70.6044 37.7105 70.6044C44.2379 70.6044 49.8559 66.7179 52.3721 61.1248C53.2317 59.2189 53.7299 57.1262 53.7798 54.9089C53.7798 54.7843 53.7798 54.6598 53.7798 54.5352H53.7673C53.7673 44.5698 62.1382 36.5227 72.2282 37.0459C81.1348 37.5317 88.285 44.6694 88.7584 53.576C89.294 63.666 81.2469 72.0369 71.269 72.0369C65.3396 72.0369 60.0953 69.0722 56.9189 64.538C56.7818 64.3636 56.6946 64.4881 56.6822 64.538C56.6822 64.538 56.6822 64.5379 56.6822 64.5504C56.2836 65.2978 55.8476 65.9954 55.3867 66.6805C59.049 71.4639 64.8164 74.5408 71.294 74.5408C83.2275 74.5283 92.7694 64.0148 91.1376 51.7573Z" fill="white" fill-opacity="0.38"/>
</svg>
