<svg width="65" height="64" viewBox="0 0 65 64" fill="none" xmlns="http://www.w3.org/2000/svg">
<path d="M21.2489 8.17239L4.6615 8V54.9912V55.1381V56H10.2481V54.9912L10.1587 37.2418C10.1587 37.2418 18.363 37.2418 19.4101 37.0694C20.4572 36.897 33.201 35.4988 33.3798 22.2314C33.5585 8.9577 21.2489 8.17239 21.2489 8.17239ZM18.5418 32.1788C16.0965 32.3512 10.1587 32.1788 10.1587 32.1788V12.9737H19.5889C19.5889 12.9737 27.7932 13.8484 27.7932 22.2251C27.7932 30.6081 20.9871 32.0064 18.5418 32.1788Z" fill="#E1F5FE"/>
<path d="M56.6008 39.336C53.2808 37.2418 44.0294 34.6241 43.3335 31.4764C42.6375 28.3352 44.7317 24.3192 50.8418 25.3663C56.952 26.4134 55.9049 26.4134 58.3502 27.6329V22.2187C58.3502 22.2187 48.9201 18.2027 41.9416 22.9146C34.9568 27.6265 37.5745 35.1349 41.4181 37.5802C45.2616 40.0255 49.9735 41.4238 51.5442 42.2921C53.1148 43.1604 56.7796 46.6592 52.4189 50.1516C48.0517 53.644 38.9727 49.8005 37.4021 48.2298C37.4021 52.0734 37.4021 53.9888 37.4021 53.9888C37.4021 53.9888 44.5593 57.1301 50.8482 55.3871C57.1307 53.644 58.3566 51.1987 59.2313 49.4493C60.0932 47.7191 59.9209 41.4302 56.6008 39.336Z" fill="#E1F5FE"/>
</svg>
