<svg width="109" height="109" viewBox="0 0 109 109" fill="none" xmlns="http://www.w3.org/2000/svg">
<path d="M97.0461 39.6204H90.5312V45.0515H97.0461V39.6204Z" fill="white" fill-opacity="0.38"/>
<path d="M97.0461 47.1318H90.5312V69.118H97.0461V47.1318Z" fill="white" fill-opacity="0.38"/>
<path d="M79.5818 55.4903V43.7186V39.6079H73.0669V55.8889H73.0794C73.2911 63.3754 79.4323 69.3671 86.9562 69.3671C87.4918 69.3671 88.015 69.3298 88.5382 69.2799V62.6903C88.0275 62.8024 87.5043 62.8647 86.9562 62.8647C82.8828 62.8647 79.5818 59.5636 79.5818 55.4903Z" fill="white" fill-opacity="0.38"/>
<path d="M33.2176 43.6813V55.4529C33.2176 59.5263 29.9165 62.8273 25.8432 62.8273C21.7698 62.8273 18.4687 59.5263 18.4687 55.4529C18.4687 51.3796 21.7698 48.0785 25.8432 48.0785C27.8113 48.0785 29.5926 48.8508 30.9131 50.0965V42.5228C29.3435 41.9124 27.6369 41.5636 25.8432 41.5636C18.1698 41.5636 11.9539 47.7795 11.9539 55.4529C11.9539 63.1263 18.1698 69.3422 25.8432 69.3422C33.5165 69.3422 39.7324 63.1263 39.7324 55.4529V55.0045V39.6204H33.2176V43.6813Z" fill="white" fill-opacity="0.38"/>
<path d="M56.3746 41.6138C48.7013 41.6138 42.4854 47.8297 42.4854 55.5031C42.4854 63.1764 48.7013 69.3924 56.3746 69.3924C62.2418 69.3924 67.2494 65.755 69.2923 60.6228H61.6937C60.3484 62.018 58.4674 62.8899 56.3871 62.8899C52.3137 62.8899 49.0127 59.5889 49.0127 55.5155C49.0127 51.4422 52.3137 48.1411 56.3871 48.1411C59.1276 48.1411 61.5193 49.6359 62.7899 51.8532H51.9027V58.3681H59.5885H63.176H69.965C70.1518 57.4463 70.2639 56.4996 70.2639 55.5155C70.2639 54.2449 70.0895 53.0242 69.7781 51.8532C68.1712 45.9363 62.7774 41.6138 56.3746 41.6138Z" fill="white" fill-opacity="0.38"/>
</svg>
