<svg width="65" height="64" viewBox="0 0 65 64" fill="none" xmlns="http://www.w3.org/2000/svg">
<path d="M48.8344 15.9989C48.8344 11.5807 45.2474 8 40.8291 8H24.8312C20.4129 8 16.8323 11.5807 16.8323 15.9989C16.8323 20.4172 20.4129 23.9979 24.8312 23.9979C20.4129 23.9979 16.8323 27.5785 16.8323 31.9968C16.8323 36.4151 20.4129 39.9957 24.8312 39.9957C20.4129 40.0021 16.8323 43.5828 16.8323 48.0011C16.8323 52.4193 20.4129 56 24.8312 56C29.2495 56 32.8301 52.4193 32.8301 48.0011V40.0021V31.9968C32.8301 36.4151 36.4108 39.9957 40.8291 39.9957C45.2474 39.9957 48.828 36.4151 48.828 31.9968C48.828 27.5785 45.2474 23.9979 40.8291 23.9979C45.2474 23.9979 48.8344 20.4172 48.8344 15.9989ZM32.8301 31.9968V23.9979H40.8291C36.4108 23.9979 32.8301 27.5785 32.8301 31.9968Z" fill="#E1F5FE"/>
</svg>
