<svg width="109" height="109" viewBox="0 0 109 109" fill="none" xmlns="http://www.w3.org/2000/svg">
<path d="M36.5373 66.6017C36.1013 66.6017 35.5407 66.4771 34.868 66.2405C34.1954 66.0038 33.5476 65.5802 32.9248 64.9823C32.302 64.3844 31.6168 63.5 30.8694 62.3166C30.122 61.1332 29.3746 59.5387 28.6521 57.5332L25.4881 48.5643C24.8528 46.7456 24.3172 45.4999 23.9061 44.8024C23.2833 43.8058 22.7227 43.1207 22.2244 42.7844C21.3026 42.1491 20.4182 41.8252 19.5587 41.8252C18.5248 41.8252 17.4411 42.0619 16.3199 42.5228L16.3947 42.7844C17.1047 42.5228 17.7649 42.3982 18.3878 42.3982C19.7705 42.3982 20.929 43.0584 21.8632 44.3913L15.4355 59.7879C15.1739 60.2861 14.85 60.6598 14.4514 60.9214C14.0528 61.1706 13.6417 61.2951 13.2307 61.2951H12.994V61.5567H18.2009V61.2951H17.9891C17.603 61.2951 17.3289 61.183 17.1421 60.9463C16.9552 60.7097 16.868 60.4979 16.868 60.2861C16.868 60.0744 16.9054 59.875 16.9926 59.6633L18.7864 55.0418H25.8867L26.8957 57.9941C27.9296 61.0709 29.2002 63.3629 30.6826 64.8702C31.3677 65.5927 32.1151 66.1657 32.9124 66.5643C33.7096 66.9754 34.5068 67.1747 35.304 67.1747C36.1013 67.1747 36.911 67.0377 37.7456 66.7636L37.7207 66.5021C37.3719 66.5643 36.9857 66.6017 36.5373 66.6017ZM19.0729 54.257L22.4985 45.4875C22.8224 46.1477 23.1836 47.057 23.5822 48.2155L25.6251 54.257H19.0729Z" fill="white" fill-opacity="0.38"/>
<path d="M41.3456 43.3701H32.576C32.0403 43.3701 31.4549 43.3203 30.8071 43.2206C30.1718 43.1209 29.7234 43.0088 29.4618 42.9092V46.1729L29.7234 46.1479V45.7119C29.7234 45.3009 29.8604 44.9396 30.1469 44.6407C30.4334 44.3417 30.7822 44.1798 31.1933 44.1549H36.1137V59.7134C36.1012 60.1493 35.9269 60.523 35.603 60.8345C35.2791 61.1459 34.8929 61.2954 34.4445 61.2954H34.1082V61.557H39.7885V61.2954H39.4521C39.0037 61.2954 38.6175 61.1459 38.2936 60.8345C37.9698 60.523 37.8079 60.1493 37.7829 59.6884V44.1549H42.7033C43.102 44.1673 43.4508 44.3293 43.7373 44.6407C44.0362 44.9396 44.1732 45.3009 44.1732 45.7119V46.1479L44.4348 46.1729V42.9092C44.3103 42.959 43.9739 43.0462 43.4134 43.1832C42.9027 43.3078 42.1926 43.3701 41.3456 43.3701Z" fill="white" fill-opacity="0.38"/>
<path d="M46.54 43.6564H46.8763C47.3247 43.6564 47.7109 43.8058 48.0348 44.1173C48.3586 44.4287 48.5206 44.8148 48.5455 45.2633V59.6509C48.533 60.0993 48.3586 60.4855 48.0348 60.8093C47.7109 61.1332 47.3247 61.2951 46.8763 61.2951H46.54V61.5567H52.2203V61.2951H51.8839C51.4355 61.2951 51.0493 61.1332 50.713 60.8093C50.3891 60.4855 50.2147 60.0993 50.2147 59.6509V45.2633C50.2272 44.8148 50.4016 44.4287 50.7254 44.1173C51.0493 43.8058 51.4355 43.6564 51.8839 43.6564H52.2203V43.3948H46.54V43.6564V43.6564Z" fill="white" fill-opacity="0.38"/>
<path d="M69.0369 43.6561H69.5351C69.9711 43.6561 70.3448 43.8055 70.6562 44.1045C70.9677 44.4035 71.1296 44.7772 71.1545 45.2381V58.0934L57.0285 43.0083H56.767L56.8168 43.4194C56.9414 44.254 57.0036 45.1882 57.0036 46.2471V59.7004C57.0036 60.1488 56.8542 60.5225 56.5427 60.8339C56.2313 61.1329 55.8576 61.2824 55.4216 61.2824H54.9233V61.544H60.2673V61.2824H59.769C59.3331 61.2824 58.9594 61.1329 58.6479 60.8339C58.3365 60.535 58.187 60.1613 58.187 59.7377V46.8201L72.313 61.9052H72.5497L72.4999 61.4443C72.3753 60.5474 72.313 59.6007 72.313 58.5917V45.2131C72.3255 44.7772 72.4999 44.4159 72.8113 44.117C73.1227 43.818 73.4964 43.6685 73.9324 43.6685H74.3933V43.4069H69.0493V43.6561H69.0369Z" fill="white" fill-opacity="0.38"/>
<path d="M93.2281 45.6369C91.3721 43.9054 88.9804 43.0334 86.0281 43.0334C83.0759 43.0334 80.6842 43.9054 78.8281 45.6369C76.9721 47.3684 76.0503 49.648 76.0503 52.4632C76.0503 55.2784 76.9721 57.558 78.8281 59.2895C80.6717 61.021 83.0759 61.893 86.0281 61.893C88.9804 61.893 91.3721 61.021 93.2281 59.2895C95.0717 57.558 96.006 55.2784 96.006 52.4632C96.006 49.6604 95.0842 47.3809 93.2281 45.6369ZM91.7956 58.7414C90.3382 60.3359 88.4074 61.1331 86.0281 61.1331C83.6489 61.1331 81.7181 60.3359 80.2606 58.7414C78.8032 57.147 78.0683 55.0542 78.0683 52.4632C78.0683 49.8722 78.8032 47.7795 80.2606 46.185C81.7181 44.5905 83.6489 43.7933 86.0281 43.7933C88.4074 43.7933 90.3382 44.5905 91.7956 46.185C93.2531 47.7795 93.988 49.8722 93.988 52.4632C93.988 55.0667 93.2531 57.1594 91.7956 58.7414Z" fill="white" fill-opacity="0.38"/>
</svg>
