<svg width="20" height="20" viewBox="0 0 20 20" fill="none" xmlns="http://www.w3.org/2000/svg">
<g clip-path="url(#clip0_75_6063)">
<path d="M2 4H17.97C19.07 4 19.97 3.1 19.97 2C19.97 0.9 19.07 0 17.97 0H2C0.9 0 0 0.9 0 2C0 3.1 0.9 4 2 4Z" fill="white"/>
<path d="M2 12H17.97C19.07 12 19.97 11.1 19.97 10C19.97 8.9 19.07 8 17.97 8H2C0.9 8 0 8.9 0 10C0 11.1 0.9 12 2 12Z" fill="white"/>
<path d="M17.97 16H2C0.9 16 0 16.9 0 18C0 19.1 0.9 20 2 20H17.97C19.07 20 19.97 19.1 19.97 18C19.97 16.9 19.07 16 17.97 16Z" fill="white"/>
</g>
<defs>
<clipPath id="clip0_75_6063">
<rect width="19.97" height="20" fill="white"/>
</clipPath>
</defs>
</svg>
