<?xml version="1.0" encoding="utf-8"?>
<!-- Generator: Adobe Illustrator 24.0.0, SVG Export Plug-In . SVG Version: 6.00 Build 0)  -->
<svg version="1.1" id="Layer_1" xmlns="http://www.w3.org/2000/svg" xmlns:xlink="http://www.w3.org/1999/xlink" x="0px" y="0px"
	 viewBox="0 0 1200 1080" style="enable-background:new 0 0 1200 1080;" xml:space="preserve">
<style type="text/css">
	.st0{fill:#FFFFFF;}
	.st1{fill:#0288D1;}
	.st2{fill:#4FC3F7;}
</style>
<g>
	<g>
		<path class="st0" d="M1297.68,355.88c-0.5,0-0.94-0.17-1.31-0.52c-0.37-0.35-0.56-0.76-0.56-1.23v-12.82
			c0-0.8,0.25-1.46,0.75-1.96c0.5-0.5,1.15-0.75,1.96-0.75h4.2c1.66,0,3.04,0.47,4.14,1.41c1.1,0.94,1.64,2.19,1.64,3.74
			c0,1.69-0.54,3.07-1.62,4.12s-2.46,1.58-4.12,1.58h-2.45c-0.56,0-0.83,0.28-0.83,0.83l0.08,3.83c0,0.47-0.19,0.88-0.56,1.23
			C1298.62,355.71,1298.18,355.88,1297.68,355.88z M1300.1,346.15h2.21c1.72,0,2.58-0.71,2.58-2.12c0-1.39-0.8-2.08-2.41-2.08h-2.37
			c-0.42,0-0.62,0.21-0.62,0.62v2.95C1299.47,345.94,1299.68,346.15,1300.1,346.15z"/>
		<path class="st0" d="M1315.78,355.88c-1.86,0-3.36-0.59-4.51-1.77c-1.15-1.18-1.73-2.75-1.73-4.72c0-1.97,0.56-3.53,1.68-4.68
			c1.12-1.15,2.6-1.73,4.43-1.73c1.3,0,2.44,0.46,3.41,1.37c0.11-0.33,0.32-0.61,0.62-0.83c0.3-0.22,0.67-0.33,1.08-0.33
			c0.55,0,1.01,0.16,1.35,0.48c0.35,0.32,0.52,0.7,0.52,1.14v9.44c0,0.47-0.17,0.86-0.52,1.17c-0.35,0.3-0.8,0.46-1.35,0.46
			c-0.92,0-1.48-0.4-1.71-1.21C1318.18,355.48,1317.09,355.88,1315.78,355.88z M1316.07,352.51c0.89,0,1.6-0.3,2.12-0.89
			c0.53-0.6,0.79-1.34,0.79-2.23c0-0.92-0.26-1.65-0.79-2.21c-0.53-0.55-1.23-0.83-2.12-0.83c-0.86,0-1.56,0.28-2.1,0.83
			c-0.54,0.55-0.81,1.29-0.81,2.21c0,0.89,0.27,1.63,0.81,2.23C1314.51,352.21,1315.21,352.51,1316.07,352.51z"/>
		<path class="st0" d="M1327.64,355.76c-0.53,0-0.97-0.15-1.33-0.46c-0.36-0.3-0.54-0.69-0.54-1.17v-9.32
			c0-0.44,0.17-0.82,0.52-1.14c0.35-0.32,0.8-0.48,1.35-0.48c0.5,0,0.91,0.15,1.23,0.44c0.32,0.29,0.51,0.65,0.56,1.06
			c0.3-0.47,0.72-0.87,1.25-1.21c0.53-0.33,1.08-0.5,1.66-0.5c0.36,0,0.71,0.04,1.04,0.12c0.39,0.11,0.71,0.33,0.96,0.65
			c0.25,0.32,0.37,0.69,0.37,1.1c0,0.58-0.19,1.06-0.56,1.44c-0.37,0.37-0.81,0.51-1.31,0.4c-0.36-0.08-0.72-0.12-1.08-0.12
			c-0.64,0-1.17,0.22-1.58,0.67c-0.42,0.44-0.67,1.35-0.75,2.7v4.16c0,0.47-0.17,0.87-0.52,1.19
			C1328.56,355.6,1328.14,355.76,1327.64,355.76z"/>
		<path class="st0" d="M1341.58,355.88c-1.86,0-3.36-0.59-4.52-1.77c-1.15-1.18-1.73-2.75-1.73-4.72c0-1.97,0.56-3.53,1.69-4.68
			s2.6-1.73,4.43-1.73c1.3,0,2.44,0.46,3.41,1.37c0.11-0.33,0.32-0.61,0.62-0.83c0.3-0.22,0.67-0.33,1.08-0.33
			c0.55,0,1.01,0.16,1.35,0.48c0.35,0.32,0.52,0.7,0.52,1.14v9.44c0,0.47-0.17,0.86-0.52,1.17c-0.35,0.3-0.8,0.46-1.35,0.46
			c-0.92,0-1.48-0.4-1.71-1.21C1343.98,355.48,1342.88,355.88,1341.58,355.88z M1341.87,352.51c0.89,0,1.6-0.3,2.12-0.89
			c0.53-0.6,0.79-1.34,0.79-2.23c0-0.92-0.26-1.65-0.79-2.21c-0.53-0.55-1.23-0.83-2.12-0.83c-0.86,0-1.56,0.28-2.1,0.83
			c-0.54,0.55-0.81,1.29-0.81,2.21c0,0.89,0.27,1.63,0.81,2.23C1340.31,352.21,1341.01,352.51,1341.87,352.51z"/>
		<path class="st0" d="M1356.89,355.88c-1.86,0-3.35-0.59-4.47-1.77c-1.12-1.18-1.68-2.75-1.68-4.72c0-1.97,0.55-3.53,1.64-4.68
			c1.1-1.15,2.56-1.73,4.39-1.73c1.19,0,2.26,0.43,3.2,1.29v-5.45c0-0.47,0.17-0.87,0.5-1.19c0.33-0.32,0.76-0.48,1.29-0.48
			c0.55,0,1.01,0.16,1.35,0.48s0.52,0.7,0.52,1.14v15.48c0,0.47-0.17,0.86-0.52,1.17c-0.35,0.3-0.8,0.46-1.35,0.46
			c-0.89,0-1.46-0.39-1.71-1.17C1359.19,355.49,1358.14,355.88,1356.89,355.88z M1357.18,352.51c0.83,0,1.5-0.3,2.02-0.89
			c0.51-0.6,0.77-1.34,0.77-2.23c0-0.92-0.26-1.65-0.77-2.21c-0.51-0.55-1.19-0.83-2.02-0.83c-0.86,0-1.55,0.28-2.06,0.83
			c-0.51,0.55-0.77,1.29-0.77,2.21c0,0.89,0.26,1.63,0.77,2.23C1355.64,352.21,1356.32,352.51,1357.18,352.51z"/>
		<path class="st0" d="M1366.21,361.5c-0.33,0-0.62-0.03-0.87-0.08c-0.25-0.06-0.49-0.11-0.71-0.17c-0.42-0.14-0.72-0.36-0.92-0.67
			c-0.19-0.31-0.29-0.62-0.29-0.96c0-0.5,0.18-0.94,0.54-1.33c0.36-0.39,0.85-0.51,1.46-0.37c0.22,0.05,0.42,0.08,0.58,0.08
			c0.69,0,1.04-0.5,1.04-1.5v-11.9c0-0.44,0.17-0.83,0.52-1.14c0.35-0.32,0.8-0.48,1.35-0.48c0.55,0,0.99,0.16,1.31,0.48
			c0.32,0.32,0.48,0.71,0.48,1.19v11.94c0,1.44-0.41,2.62-1.23,3.54S1367.57,361.5,1366.21,361.5z M1368.87,341.11
			c-0.58,0-1.08-0.19-1.5-0.56c-0.42-0.37-0.62-0.85-0.62-1.44c0-0.53,0.21-0.98,0.62-1.37c0.42-0.39,0.91-0.58,1.5-0.58
			c0.55,0,1.03,0.19,1.44,0.58c0.4,0.39,0.6,0.85,0.6,1.37c0,0.58-0.2,1.06-0.6,1.44C1369.91,340.92,1369.43,341.11,1368.87,341.11z
			"/>
		<path class="st0" d="M1378.36,355.88c-1.89,0-3.44-0.39-4.66-1.17c-0.25-0.17-0.43-0.37-0.54-0.6c-0.11-0.24-0.17-0.46-0.17-0.69
			c0-0.47,0.16-0.9,0.48-1.29c0.32-0.39,0.71-0.58,1.19-0.58c0.22,0,0.44,0.06,0.67,0.17c0.5,0.22,1.07,0.41,1.71,0.56
			c0.64,0.15,1.22,0.23,1.75,0.23c1.03,0,1.54-0.24,1.54-0.71c0-0.28-0.13-0.52-0.37-0.73c-0.25-0.21-0.83-0.35-1.75-0.44
			c-0.36-0.03-0.82-0.08-1.39-0.17c-0.57-0.08-1.13-0.24-1.69-0.48c-0.55-0.24-1.02-0.59-1.39-1.06c-0.37-0.47-0.56-1.11-0.56-1.91
			c0-1.25,0.47-2.23,1.41-2.95c0.94-0.72,2.21-1.08,3.79-1.08c0.92,0,1.78,0.1,2.6,0.29c0.82,0.19,1.44,0.49,1.85,0.87
			c0.39,0.36,0.58,0.78,0.58,1.25c0,0.42-0.15,0.79-0.46,1.12c-0.31,0.33-0.69,0.5-1.17,0.5c-0.25,0-0.49-0.06-0.71-0.17
			c-0.33-0.22-0.76-0.39-1.27-0.5c-0.51-0.11-1.03-0.17-1.56-0.17c-1.05,0-1.58,0.22-1.58,0.67c0,0.19,0.1,0.37,0.31,0.52
			c0.21,0.15,0.69,0.28,1.44,0.4c0.47,0.06,1.01,0.13,1.62,0.23c0.61,0.1,1.2,0.26,1.77,0.5c0.57,0.24,1.05,0.62,1.44,1.14
			c0.39,0.53,0.58,1.25,0.58,2.16c0,1.25-0.5,2.24-1.5,2.98C1381.32,355.51,1380,355.88,1378.36,355.88z"/>
		<path class="st0" d="M1391.97,355.88c-1.89,0-3.47-0.56-4.76-1.68c-1.29-1.12-1.93-2.67-1.93-4.64c0-2.05,0.63-3.66,1.89-4.83
			c1.26-1.17,2.85-1.75,4.76-1.75c1.36,0,2.48,0.25,3.37,0.75c0.89,0.5,1.55,1.14,2,1.91c0.44,0.78,0.67,1.6,0.67,2.45
			c0,1.44-0.64,2.16-1.91,2.16h-6.91c-0.22,0-0.33,0.14-0.33,0.42c0,0.64,0.35,1.14,1.06,1.52c0.71,0.37,1.51,0.56,2.39,0.56
			c0.55,0,1.11-0.08,1.66-0.23c0.55-0.15,1.04-0.38,1.46-0.69c0.28-0.19,0.57-0.29,0.87-0.29c0.42,0,0.77,0.15,1.06,0.46
			c0.29,0.31,0.44,0.67,0.44,1.08c0,0.5-0.26,0.97-0.79,1.41c-0.5,0.42-1.23,0.75-2.18,1
			C1393.82,355.76,1392.88,355.88,1391.97,355.88z M1394.13,347.85c0.06,0,0.13-0.01,0.23-0.04c0.1-0.03,0.15-0.12,0.15-0.29
			c0-0.42-0.26-0.8-0.77-1.14c-0.51-0.35-1.17-0.52-1.98-0.52c-0.86,0-1.56,0.19-2.1,0.56c-0.54,0.37-0.81,0.76-0.81,1.14
			c0,0.19,0.11,0.29,0.33,0.29H1394.13z"/>
	</g>
	<path class="st1" d="M1272.93,353.47c0,2.07-0.92,3.93-2.37,5.19c-1.06,0.92-1.45,2.41-0.94,3.72l0.02,0.06
		c0.83,2.13,3.52,2.81,5.25,1.32c2.89-2.49,4.73-6.17,4.73-10.29c0-7.49-6.07-13.56-13.56-13.56l0,3.46c0,1.65,1.02,3.11,2.55,3.73
		C1271.15,348.11,1272.93,350.58,1272.93,353.47z"/>
	<path class="st2" d="M1279.29,327.56h-9.35c-2.16,0-3.91,1.75-3.91,3.91v11.93c0,2.16,1.75,3.91,3.91,3.91h9.35
		c5.45,0,9.88-4.42,9.88-9.88v0C1289.16,331.98,1284.74,327.56,1279.29,327.56z M1282.47,337.43c0,1.76-1.43,3.19-3.19,3.19h-5.32
		c-0.69,0-1.25-0.56-1.25-1.25v-3.87c0-0.69,0.56-1.25,1.25-1.25h5.32C1281.05,334.25,1282.47,335.67,1282.47,337.43L1282.47,337.43
		z"/>
</g>
</svg>
