<svg width="132" height="37" viewBox="0 0 132 37" fill="none" xmlns="http://www.w3.org/2000/svg">
<g clip-path="url(#clip0_73_6040)">
<path d="M31.65 28.3199C31.15 28.3199 30.71 28.1499 30.34 27.7999C29.97 27.4499 29.78 27.0399 29.78 26.5699V13.7599C29.78 12.9599 30.03 12.2999 30.53 11.7999C31.03 11.2999 31.68 11.0499 32.49 11.0499H36.69C38.35 11.0499 39.73 11.5199 40.83 12.4599C41.93 13.3999 42.47 14.6499 42.47 16.1999C42.47 17.8899 41.93 19.2699 40.85 20.3199C39.77 21.3699 38.39 21.8999 36.73 21.8999H34.28C33.72 21.8999 33.45 22.1799 33.45 22.7299L33.53 26.5599C33.53 27.0299 33.34 27.4399 32.97 27.7899C32.59 28.1499 32.15 28.3199 31.65 28.3199ZM34.07 18.5899H36.28C38 18.5899 38.86 17.8799 38.86 16.4699C38.86 15.0799 38.06 14.3899 36.45 14.3899H34.08C33.66 14.3899 33.46 14.5999 33.46 15.0099V17.9599C33.44 18.3799 33.65 18.5899 34.07 18.5899Z" fill="white"/>
<path d="M49.75 28.3199C47.89 28.3199 46.39 27.7299 45.24 26.5499C44.09 25.3699 43.51 23.7999 43.51 21.8299C43.51 19.8599 44.07 18.2999 45.19 17.1499C46.31 15.9999 47.79 15.4199 49.62 15.4199C50.92 15.4199 52.06 15.8799 53.03 16.7899C53.14 16.4599 53.35 16.1799 53.65 15.9599C53.95 15.7399 54.32 15.6299 54.73 15.6299C55.28 15.6299 55.74 15.7899 56.08 16.1099C56.43 16.4299 56.6 16.8099 56.6 17.2499V26.6899C56.6 27.1599 56.43 27.5499 56.08 27.8599C55.73 28.1699 55.28 28.3199 54.73 28.3199C53.81 28.3199 53.25 27.9199 53.02 27.1099C52.15 27.9199 51.06 28.3199 49.75 28.3199ZM50.04 24.9499C50.93 24.9499 51.64 24.6499 52.16 24.0599C52.69 23.4599 52.95 22.7199 52.95 21.8299C52.95 20.9099 52.69 20.1799 52.16 19.6199C51.63 19.0699 50.93 18.7899 50.04 18.7899C49.18 18.7899 48.48 19.0699 47.94 19.6199C47.4 20.1699 47.13 20.9099 47.13 21.8299C47.13 22.7199 47.4 23.4599 47.94 24.0599C48.48 24.6599 49.18 24.9499 50.04 24.9499Z" fill="white"/>
<path d="M61.61 28.1999C61.08 28.1999 60.64 28.0499 60.28 27.7399C59.92 27.4399 59.74 27.0499 59.74 26.5699V17.2499C59.74 16.8099 59.91 16.4299 60.26 16.1099C60.61 15.7899 61.06 15.6299 61.61 15.6299C62.11 15.6299 62.52 15.7799 62.84 16.0699C63.16 16.3599 63.35 16.7199 63.4 17.1299C63.7 16.6599 64.12 16.2599 64.65 15.9199C65.18 15.5899 65.73 15.4199 66.31 15.4199C66.67 15.4199 67.02 15.4599 67.35 15.5399C67.74 15.6499 68.06 15.8699 68.31 16.1899C68.56 16.5099 68.68 16.8799 68.68 17.2899C68.68 17.8699 68.49 18.3499 68.12 18.7299C67.75 19.0999 67.31 19.2399 66.81 19.1299C66.45 19.0499 66.09 18.9999 65.73 18.9999C65.09 18.9999 64.56 19.2199 64.15 19.6699C63.73 20.1099 63.48 21.0199 63.4 22.3699V26.5299C63.4 26.9999 63.23 27.3999 62.88 27.7199C62.53 28.0399 62.11 28.1999 61.61 28.1999Z" fill="white"/>
<path d="M75.5501 28.3199C73.6901 28.3199 72.1901 27.7299 71.0401 26.5499C69.8901 25.3699 69.3101 23.7999 69.3101 21.8299C69.3101 19.8599 69.8701 18.2999 70.9901 17.1499C72.1101 15.9999 73.5901 15.4199 75.4201 15.4199C76.7201 15.4199 77.8601 15.8799 78.8301 16.7899C78.9401 16.4599 79.1501 16.1799 79.4501 15.9599C79.7501 15.7399 80.1201 15.6299 80.5301 15.6299C81.0801 15.6299 81.5401 15.7899 81.8801 16.1099C82.2301 16.4299 82.4001 16.8099 82.4001 17.2499V26.6899C82.4001 27.1599 82.2301 27.5499 81.8801 27.8599C81.5301 28.1599 81.0801 28.3199 80.5301 28.3199C79.6101 28.3199 79.0501 27.9199 78.8201 27.1099C77.9501 27.9199 76.8501 28.3199 75.5501 28.3199ZM75.8401 24.9499C76.7301 24.9499 77.4401 24.6499 77.9601 24.0599C78.4901 23.4599 78.7501 22.7199 78.7501 21.8299C78.7501 20.9099 78.4901 20.1799 77.9601 19.6199C77.4301 19.0699 76.7301 18.7899 75.8401 18.7899C74.9801 18.7899 74.2801 19.0699 73.7401 19.6199C73.2001 20.1699 72.9301 20.9099 72.9301 21.8299C72.9301 22.7199 73.2001 23.4599 73.7401 24.0599C74.2801 24.6599 74.9801 24.9499 75.8401 24.9499Z" fill="white"/>
<path d="M90.8601 28.32C89.0001 28.32 87.5101 27.73 86.3901 26.55C85.2701 25.37 84.7101 23.8 84.7101 21.83C84.7101 19.86 85.2601 18.3 86.3501 17.15C87.4501 16 88.9101 15.42 90.7401 15.42C91.9301 15.42 93.0001 15.85 93.9401 16.71V11.26C93.9401 10.79 94.1101 10.39 94.4401 10.07C94.7701 9.74997 95.2001 9.58997 95.7301 9.58997C96.2801 9.58997 96.7401 9.74997 97.0801 10.07C97.4301 10.39 97.6001 10.77 97.6001 11.21V26.7C97.6001 27.17 97.4301 27.56 97.0801 27.87C96.7301 28.17 96.2801 28.33 95.7301 28.33C94.8401 28.33 94.2701 27.94 94.0201 27.16C93.1601 27.94 92.1101 28.32 90.8601 28.32ZM91.1501 24.95C91.9801 24.95 92.6501 24.65 93.1701 24.06C93.6801 23.46 93.9401 22.72 93.9401 21.83C93.9401 20.91 93.6801 20.18 93.1701 19.62C92.6601 19.07 91.9801 18.79 91.1501 18.79C90.2901 18.79 89.6001 19.07 89.0901 19.62C88.5801 20.17 88.3201 20.91 88.3201 21.83C88.3201 22.72 88.5801 23.46 89.0901 24.06C89.6101 24.66 90.2901 24.95 91.1501 24.95Z" fill="white"/>
<path d="M100.18 33.94C99.85 33.94 99.56 33.91 99.31 33.86C99.06 33.8 98.82 33.75 98.6 33.69C98.18 33.55 97.88 33.33 97.68 33.02C97.49 32.71 97.39 32.4 97.39 32.06C97.39 31.56 97.57 31.12 97.93 30.73C98.29 30.34 98.78 30.22 99.39 30.36C99.61 30.41 99.81 30.44 99.97 30.44C100.66 30.44 101.01 29.94 101.01 28.94V17.04C101.01 16.6 101.18 16.21 101.53 15.9C101.88 15.58 102.33 15.42 102.88 15.42C103.43 15.42 103.87 15.58 104.19 15.9C104.51 16.22 104.67 16.61 104.67 17.09V29.03C104.67 30.47 104.26 31.65 103.44 32.57C102.63 33.48 101.54 33.94 100.18 33.94ZM102.85 13.55C102.27 13.55 101.77 13.36 101.35 12.99C100.93 12.62 100.73 12.14 100.73 11.55C100.73 11.02 100.94 10.57 101.35 10.18C101.77 9.78998 102.26 9.59998 102.85 9.59998C103.4 9.59998 103.88 9.78998 104.29 10.18C104.69 10.57 104.89 11.03 104.89 11.55C104.89 12.13 104.69 12.61 104.29 12.99C103.88 13.37 103.4 13.55 102.85 13.55Z" fill="white"/>
<path d="M112.33 28.3199C110.44 28.3199 108.89 27.9299 107.67 27.1499C107.42 26.9799 107.24 26.7799 107.13 26.5499C107.02 26.3199 106.96 26.0899 106.96 25.8599C106.96 25.3899 107.12 24.9599 107.44 24.5699C107.76 24.1799 108.15 23.9899 108.63 23.9899C108.85 23.9899 109.07 24.0499 109.3 24.1599C109.8 24.3799 110.37 24.5699 111.01 24.7199C111.65 24.8699 112.23 24.9499 112.76 24.9499C113.79 24.9499 114.3 24.7099 114.3 24.2399C114.3 23.9599 114.18 23.7199 113.93 23.5099C113.68 23.2999 113.1 23.1599 112.18 23.0699C111.82 23.0399 111.36 22.9899 110.79 22.8999C110.22 22.8199 109.66 22.6599 109.1 22.4199C108.55 22.1799 108.08 21.8299 107.71 21.3599C107.34 20.8899 107.15 20.2499 107.15 19.4499C107.15 18.1999 107.62 17.2199 108.56 16.4999C109.5 15.7799 110.77 15.4199 112.35 15.4199C113.27 15.4199 114.13 15.5199 114.95 15.7099C115.77 15.8999 116.39 16.1999 116.8 16.5799C117.19 16.9399 117.38 17.3599 117.38 17.8299C117.38 18.2499 117.23 18.6199 116.92 18.9499C116.61 19.2799 116.23 19.4499 115.75 19.4499C115.5 19.4499 115.26 19.3899 115.04 19.2799C114.71 19.0599 114.28 18.8899 113.77 18.7799C113.26 18.6699 112.74 18.6099 112.21 18.6099C111.16 18.6099 110.63 18.8299 110.63 19.2799C110.63 19.4699 110.73 19.6499 110.94 19.7999C111.15 19.9499 111.63 20.0799 112.38 20.1999C112.85 20.2599 113.39 20.3299 114 20.4299C114.61 20.5299 115.2 20.6899 115.77 20.9299C116.34 21.1699 116.82 21.5499 117.21 22.0699C117.6 22.5999 117.79 23.3199 117.79 24.2299C117.79 25.4799 117.29 26.4699 116.29 27.2099C115.29 27.9599 113.97 28.3199 112.33 28.3199Z" fill="white"/>
<path d="M125.94 28.3199C124.05 28.3199 122.47 27.7599 121.18 26.6399C119.89 25.5199 119.25 23.9699 119.25 21.9999C119.25 19.9499 119.88 18.3399 121.14 17.1699C122.4 15.9999 123.99 15.4199 125.9 15.4199C127.26 15.4199 128.38 15.6699 129.27 16.1699C130.16 16.6699 130.82 17.3099 131.27 18.0799C131.71 18.8599 131.94 19.6799 131.94 20.5299C131.94 21.9699 131.3 22.6899 130.03 22.6899H123.12C122.9 22.6899 122.79 22.8299 122.79 23.1099C122.79 23.7499 123.14 24.2499 123.85 24.6299C124.56 24.9999 125.36 25.1899 126.24 25.1899C126.79 25.1899 127.35 25.1099 127.9 24.9599C128.45 24.8099 128.94 24.5799 129.36 24.2699C129.64 24.0799 129.93 23.9799 130.23 23.9799C130.65 23.9799 131 24.1299 131.29 24.4399C131.58 24.7499 131.73 25.1099 131.73 25.5199C131.73 26.0199 131.47 26.4899 130.94 26.9299C130.44 27.3499 129.71 27.6799 128.76 27.9299C127.79 28.1999 126.85 28.3199 125.94 28.3199ZM128.1 20.2899C128.16 20.2899 128.23 20.2799 128.33 20.2499C128.43 20.2199 128.48 20.1299 128.48 19.9599C128.48 19.5399 128.22 19.1599 127.71 18.8199C127.2 18.4699 126.54 18.2999 125.73 18.2999C124.87 18.2999 124.17 18.4899 123.63 18.8599C123.09 19.2299 122.82 19.6199 122.82 19.9999C122.82 20.1899 122.93 20.2899 123.15 20.2899H128.1Z" fill="white"/>
<path d="M6.90003 25.92C6.90003 27.99 5.98003 29.85 4.53003 31.11C3.47003 32.03 3.08003 33.52 3.59003 34.83L3.61003 34.89C4.44003 37.02 7.13003 37.7 8.86003 36.21C11.75 33.72 13.59 30.04 13.59 25.92C13.59 18.43 7.52003 12.36 0.0300293 12.36V15.82C0.0300293 17.47 1.05003 18.93 2.58003 19.55C5.12003 20.55 6.90003 23.03 6.90003 25.92Z" fill="#0288D1"/>
<path d="M13.26 0H3.91C1.75 0 0 1.75 0 3.91V15.84C0 18 1.75 19.75 3.91 19.75H13.26C18.71 19.75 23.14 15.33 23.14 9.87C23.13 4.42 18.71 0 13.26 0ZM16.44 9.88C16.44 11.64 15.01 13.07 13.25 13.07H7.94C7.25 13.07 6.69 12.51 6.69 11.82V7.94C6.69 7.25 7.25 6.69 7.94 6.69H13.26C15.02 6.69 16.44 8.12 16.44 9.88Z" fill="#4FC3F7"/>
</g>
<defs>
<clipPath id="clip0_73_6040">
<rect width="131.93" height="37" fill="white"/>
</clipPath>
</defs>
</svg>
